<svg width="125" height="479" viewBox="0 0 125 479" fill="none" xmlns="http://www.w3.org/2000/svg">
<path opacity="0.12" d="M-164.579 272.134L-164.735 272.22L-164.893 272.303L-165.053 272.385L-165.215 272.466L-165.379 272.545L-165.544 272.623L-165.711 272.699L-165.879 272.773L-166.05 272.846L-166.222 272.917L-166.396 272.986L-166.571 273.054L-166.748 273.12L-166.926 273.184L-167.107 273.246L-167.288 273.307L-167.472 273.366L-167.656 273.422L-167.843 273.477L-168.03 273.53L-168.219 273.582L-168.41 273.631L-168.602 273.678L-168.795 273.723L-168.99 273.767L-169.186 273.808L-169.384 273.847L-169.582 273.884L-169.782 273.919L-169.983 273.952L-170.186 273.983L-170.389 274.012L-170.594 274.038L-170.8 274.062L-171.007 274.084L-171.215 274.104L-171.424 274.122L-171.634 274.137L-171.845 274.15L-172.057 274.161L-172.27 274.17L-172.484 274.176L-172.699 274.18L-172.915 274.181L-173.131 274.18L-173.349 274.177L-173.567 274.171L-173.785 274.163L-174.005 274.152L-174.225 274.139L-174.446 274.124L-174.667 274.106L-174.889 274.086L-175.112 274.063L-175.335 274.037L-175.559 274.009L-175.783 273.979L-176.007 273.946L-176.232 273.91L-176.457 273.872L-176.683 273.831L-176.909 273.788L-177.135 273.742L-177.361 273.694L-177.588 273.642L-177.815 273.589L-178.041 273.532L-178.268 273.473L-178.495 273.412L-178.722 273.347L-178.949 273.28L-179.176 273.211L-179.403 273.138L-179.63 273.063L-179.857 272.985L-180.083 272.905L-180.31 272.822L-180.536 272.736L-180.761 272.648L-180.987 272.556L-181.212 272.463L-181.437 272.366L-181.661 272.267L-181.885 272.165L-182.108 272.06L-182.331 271.952L-182.553 271.842L-182.774 271.729L-182.995 271.614L-183.215 271.495L-183.435 271.374L-183.654 271.25L-183.872 271.124L-184.089 270.995L-184.305 270.863L-184.521 270.728L-184.735 270.591L-184.949 270.451L-185.161 270.308L-185.373 270.163L-185.583 270.015L-185.792 269.864L-186 269.711L-186.207 269.555L-186.413 269.396L-186.617 269.235L-186.821 269.071L-187.022 268.904L-187.223 268.735L-187.422 268.563L-187.619 268.388L-187.816 268.211L-188.01 268.031L-188.203 267.849L-188.395 267.664L-188.585 267.477L-188.773 267.287L-188.959 267.095L-189.144 266.9L-189.327 266.702L-189.508 266.502L-189.688 266.3L-189.865 266.095L-190.041 265.888L-190.215 265.678L-190.387 265.466L-190.556 265.251L-190.724 265.034L-190.89 264.815L-191.053 264.593L-191.214 264.369L-191.374 264.143L-191.531 263.914L-191.685 263.683L-191.838 263.45L-191.988 263.215L-192.136 262.977L-192.281 262.737L-192.424 262.495L-192.565 262.251L-192.703 262.005L-192.839 261.756L-192.972 261.506L-193.102 261.253L-193.23 260.998L-193.356 260.742L-193.478 260.483L-193.598 260.222L-193.716 259.96L-193.83 259.695L-193.942 259.429L-194.051 259.16L-194.157 258.89L-194.26 258.618L-194.36 258.344L-194.458 258.069L-194.552 257.791L-194.644 257.512L-194.732 257.232L-194.818 256.949L-194.9 256.665L-194.979 256.379L-195.056 256.092L-195.129 255.803L-195.199 255.513L-195.265 255.221L-195.329 254.928L-195.389 254.633L-195.446 254.337L-195.5 254.04L-195.55 253.741L-195.598 253.441L-195.641 253.14L-195.682 252.837L-195.719 252.534L-195.752 252.229L-195.782 251.923L-195.809 251.615L-195.832 251.307L-195.852 250.998L-195.868 250.688L-195.881 250.376L-195.89 250.064L-195.895 249.751L-195.897 249.437L-195.895 249.123L-195.89 248.807L-195.881 248.491L-195.868 248.174L-195.852 247.856L-195.832 247.538L-195.808 247.219L-195.781 246.9L-195.749 246.58L-195.715 246.259L-195.676 245.938L-195.633 245.617L-195.587 245.295L-195.537 244.973L-195.483 244.651L-195.425 244.328L-195.363 244.006L-195.298 243.683L-195.229 243.36L-195.155 243.036L-195.078 242.713L-194.997 242.39L-194.913 242.067L-194.824 241.743L-194.731 241.42L-194.635 241.097L-194.534 240.775L-194.43 240.452L-194.321 240.13L-194.209 239.808L-194.093 239.486L-193.973 239.165L-193.849 238.844L-193.72 238.524L-193.588 238.204L-193.452 237.885L-193.313 237.566L-193.169 237.248L-193.021 236.931L-192.869 236.614L-192.713 236.299L-192.554 235.983L-192.39 235.669L-192.222 235.356L-192.051 235.044L-191.875 234.732L-191.696 234.422L-191.512 234.113L-191.325 233.805L-191.134 233.498L-190.939 233.192L-190.74 232.887L-190.537 232.584L-190.33 232.282L-190.119 231.981L-189.905 231.682L-189.686 231.384L-189.464 231.088L-189.238 230.793L-189.008 230.5L-188.774 230.209L-188.536 229.919L-188.294 229.631L-188.049 229.344L-187.8 229.059L-187.547 228.777L-187.291 228.496L-187.03 228.217L-186.766 227.939L-186.499 227.664L-186.227 227.391L-185.952 227.12L-185.674 226.851L-185.391 226.585L-185.105 226.32L-184.816 226.058L-184.522 225.798L-184.226 225.54L-183.925 225.285L-183.622 225.032L-183.314 224.781L-183.004 224.533L-182.689 224.288L-182.372 224.045L-182.051 223.805L-181.726 223.567L-181.399 223.332L-181.068 223.1L-180.733 222.87L-180.396 222.644L-180.055 222.42L-179.711 222.199L-179.363 221.981L-179.013 221.765L-178.659 221.553L-178.302 221.344L-177.943 221.138L-177.58 220.935L-177.214 220.735L-176.845 220.539L-176.473 220.345L-176.098 220.155L-175.721 219.968L-175.34 219.784L-174.957 219.604L-174.571 219.427L-174.182 219.253L-173.79 219.083L-173.396 218.917L-172.999 218.754L-172.599 218.594L-172.197 218.438L-171.793 218.286L-171.385 218.137L-170.976 217.992L-170.564 217.851L-170.149 217.713L-169.732 217.58L-169.313 217.45L-168.892 217.324L-168.468 217.201L-168.042 217.083L-167.614 216.968L-167.184 216.858L-166.752 216.751L-166.318 216.649L-165.881 216.55L-165.443 216.456L-165.003 216.365L-164.561 216.279L-164.118 216.197L-163.672 216.119L-163.225 216.045L-162.776 215.975L-162.326 215.91L-161.874 215.849L-161.42 215.792L-160.965 215.739L-160.508 215.691L-160.05 215.647L-159.591 215.608L-159.131 215.572L-158.669 215.542L-158.206 215.515L-157.742 215.494L-157.276 215.476L-156.81 215.463L-156.343 215.455L-155.874 215.451L-155.405 215.452L-154.935 215.457L-154.464 215.467L-153.992 215.481L-153.52 215.5L-153.047 215.523L-152.574 215.552L-152.099 215.584L-151.625 215.622L-151.15 215.664L-150.674 215.711L-150.199 215.762L-149.722 215.819L-149.246 215.88L-148.77 215.945L-148.293 216.016L-147.816 216.091L-147.34 216.171L-146.863 216.255L-146.386 216.345L-145.91 216.439L-145.434 216.538L-144.958 216.642L-144.482 216.75L-144.007 216.863L-143.532 216.982L-143.058 217.104L-142.584 217.232L-142.11 217.365L-141.638 217.502L-141.166 217.644L-140.695 217.791L-140.224 217.943L-139.755 218.1L-139.286 218.261L-138.819 218.427L-138.352 218.598L-137.887 218.774L-137.422 218.955L-136.959 219.14L-136.498 219.33L-136.037 219.525L-135.578 219.725L-135.12 219.929L-134.664 220.139L-134.209 220.353L-133.756 220.572L-133.305 220.795L-132.855 221.023L-132.407 221.256L-131.961 221.494L-131.517 221.737L-131.074 221.984L-130.634 222.235L-130.196 222.492L-129.76 222.753L-129.326 223.019L-128.894 223.289L-128.465 223.564L-128.037 223.844L-127.613 224.128L-127.19 224.417L-126.77 224.71L-126.353 225.008L-125.938 225.31L-125.526 225.617L-125.117 225.929L-124.711 226.244L-124.307 226.564L-123.906 226.889L-123.508 227.218L-123.113 227.551L-122.722 227.889L-122.333 228.231L-121.947 228.578L-121.565 228.928L-121.186 229.283L-120.81 229.642L-120.437 230.005L-120.068 230.373L-119.703 230.744L-119.341 231.12L-118.982 231.5L-118.627 231.884L-118.276 232.272L-117.928 232.664L-117.585 233.059L-117.245 233.459L-116.909 233.863L-116.577 234.27L-116.249 234.682L-115.924 235.097L-115.604 235.516L-115.288 235.939L-114.977 236.365L-114.669 236.795L-114.366 237.229L-114.067 237.666L-113.772 238.107L-113.482 238.551L-113.196 238.999L-112.915 239.45L-112.638 239.905L-112.366 240.363L-112.099 240.824L-111.836 241.289L-111.578 241.757L-111.324 242.228L-111.076 242.702L-110.832 243.18L-110.593 243.66L-110.359 244.143L-110.13 244.63L-109.906 245.119L-109.687 245.612L-109.473 246.107L-109.265 246.605L-109.061 247.105L-108.863 247.609L-108.67 248.115L-108.482 248.623L-108.299 249.135L-108.122 249.649L-107.95 250.165L-107.784 250.683L-107.623 251.205L-107.468 251.728L-107.318 252.254L-107.173 252.781L-107.035 253.311L-106.902 253.844L-106.774 254.378L-106.652 254.914L-106.536 255.452L-106.426 255.992L-106.321 256.534L-106.223 257.078L-106.13 257.624L-106.043 258.171L-105.961 258.72L-105.886 259.27L-105.817 259.822L-105.753 260.376L-105.696 260.93L-105.645 261.487L-105.599 262.044L-105.56 262.603L-105.527 263.163L-105.5 263.724L-105.479 264.286L-105.464 264.849L-105.455 265.413L-105.453 265.978L-105.456 266.544L-105.466 267.111L-105.482 267.678L-105.505 268.246L-105.533 268.815L-105.568 269.384L-105.61 269.954L-105.657 270.524L-105.711 271.094L-105.771 271.665L-105.838 272.236L-105.911 272.807L-105.99 273.378L-106.075 273.95L-106.167 274.521L-106.266 275.092L-106.37 275.663L-106.482 276.234L-106.599 276.805L-106.723 277.375L-106.854 277.945L-106.991 278.514L-107.134 279.083L-107.284 279.652L-107.44 280.22L-107.602 280.787L-107.771 281.353L-107.947 281.918L-108.129 282.483L-108.317 283.046L-108.512 283.609L-108.713 284.171L-108.921 284.731L-109.135 285.29L-109.355 285.848L-109.582 286.405L-109.815 286.96L-110.055 287.513L-110.301 288.066L-110.553 288.616L-110.812 289.165L-111.077 289.712L-111.348 290.258L-111.626 290.801L-111.91 291.343L-112.201 291.882L-112.497 292.42L-112.8 292.956L-113.11 293.489L-113.425 294.02L-113.747 294.549L-114.075 295.075L-114.409 295.599L-114.749 296.121L-115.096 296.64L-115.448 297.156L-115.807 297.67L-116.172 298.181L-116.542 298.689L-116.919 299.195L-117.302 299.697L-117.691 300.197L-118.086 300.693L-118.487 301.186L-118.894 301.676L-119.306 302.163L-119.725 302.647L-120.149 303.127L-120.579 303.604L-121.015 304.078L-121.456 304.547L-121.904 305.014L-122.357 305.476L-122.815 305.935L-123.279 306.39L-123.749 306.842L-124.224 307.289L-124.705 307.733L-125.191 308.172L-125.683 308.608L-126.18 309.039L-126.683 309.466L-127.19 309.889L-127.703 310.308L-128.221 310.722L-128.745 311.132L-129.273 311.537L-129.807 311.938L-130.345 312.335L-130.889 312.726L-131.437 313.113L-131.991 313.496L-132.549 313.873L-133.112 314.246L-133.68 314.614L-134.253 314.977L-134.83 315.335L-135.412 315.688L-135.999 316.036L-136.59 316.378L-137.186 316.716L-137.785 317.048L-138.39 317.375L-138.998 317.697L-139.611 318.013L-140.228 318.324L-140.85 318.629L-141.475 318.929L-142.104 319.223L-142.738 319.512L-143.375 319.795L-144.016 320.072L-144.661 320.344L-145.31 320.609L-145.962 320.869L-146.618 321.123L-147.277 321.371L-147.94 321.614L-148.607 321.85L-149.277 322.08L-149.95 322.304L-150.626 322.522L-151.306 322.734L-151.989 322.939L-152.675 323.138L-153.363 323.332L-154.055 323.518L-154.75 323.699L-155.447 323.873L-156.147 324.04L-156.85 324.202L-157.555 324.356L-158.263 324.505L-158.974 324.646L-159.686 324.781L-160.401 324.91L-161.119 325.032L-161.838 325.147L-162.56 325.255L-163.283 325.357L-164.009 325.452L-164.736 325.541L-165.465 325.622L-166.196 325.697L-166.929 325.765L-167.663 325.826L-168.399 325.88L-169.136 325.927L-169.875 325.967L-170.615 326L-171.356 326.027L-172.098 326.046L-172.841 326.058L-173.586 326.063L-174.331 326.061L-175.077 326.053L-175.824 326.037L-176.571 326.014L-177.319 325.983L-178.068 325.946L-178.817 325.902L-179.566 325.85L-180.316 325.791L-181.066 325.725L-181.816 325.652L-182.566 325.572L-183.316 325.484L-184.066 325.39L-184.816 325.288L-185.566 325.178L-186.315 325.062L-187.064 324.938L-187.812 324.807L-188.56 324.669L-189.307 324.524L-190.053 324.371L-190.799 324.212L-191.543 324.044L-192.287 323.87L-193.03 323.688L-193.771 323.5L-194.511 323.304L-195.25 323.1L-195.987 322.89L-196.723 322.672L-197.458 322.447L-198.191 322.215L-198.922 321.975L-199.651 321.729L-200.379 321.475L-201.104 321.214L-201.827 320.946L-202.549 320.671L-203.268 320.389L-203.985 320.099L-204.699 319.802L-205.411 319.499L-206.121 319.188L-206.828 318.87L-207.532 318.545L-208.233 318.213L-208.932 317.874L-209.628 317.528L-210.32 317.175L-211.01 316.816L-211.696 316.449L-212.38 316.075L-213.059 315.695L-213.736 315.307L-214.409 314.913L-215.078 314.512L-215.744 314.104L-216.406 313.69L-217.064 313.268L-217.719 312.84L-218.369 312.406L-219.016 311.965L-219.658 311.517L-220.296 311.062L-220.93 310.601L-221.56 310.134L-222.185 309.66L-222.805 309.18L-223.421 308.693L-224.033 308.2L-224.64 307.701L-225.242 307.195L-225.839 306.683L-226.431 306.165L-227.018 305.641L-227.6 305.111L-228.177 304.574L-228.749 304.032L-229.315 303.483L-229.876 302.929L-230.432 302.369L-230.982 301.802L-231.527 301.23L-232.066 300.653L-232.599 300.069L-233.126 299.48L-233.648 298.886L-234.163 298.285L-234.673 297.68L-235.177 297.069L-235.674 296.452L-236.166 295.83L-236.651 295.203L-237.129 294.57L-237.602 293.933L-238.068 293.29L-238.527 292.642L-238.98 291.989L-239.427 291.331L-239.866 290.668L-240.299 290.001L-240.725 289.328L-241.144 288.651L-241.556 287.969L-241.962 287.283L-242.36 286.592L-242.751 285.897L-243.135 285.197L-243.512 284.493L-243.881 283.784L-244.244 283.072L-244.599 282.355L-244.946 281.634L-245.286 280.909L-245.618 280.18L-245.943 279.447L-246.261 278.711L-246.57 277.97L-246.872 277.226L-247.166 276.479L-247.452 275.727L-247.731 274.973L-248.001 274.215L-248.264 273.453L-248.518 272.689L-248.765 271.921L-249.003 271.15L-249.233 270.376L-249.455 269.599L-249.669 268.819L-249.875 268.037L-250.072 267.252L-250.261 266.464L-250.442 265.673L-250.615 264.88L-250.778 264.085L-250.934 263.287L-251.081 262.487L-251.219 261.684L-251.349 260.88L-251.47 260.074L-251.583 259.265L-251.687 258.455L-251.782 257.643L-251.868 256.829L-251.946 256.014L-252.015 255.197L-252.075 254.379L-252.127 253.559L-252.17 252.738L-252.203 251.916L-252.228 251.093L-252.244 250.268L-252.251 249.443L-252.249 248.617L-252.238 247.79L-252.219 246.962L-252.19 246.134L-252.152 245.305L-252.105 244.476L-252.049 243.646L-251.984 242.816L-251.91 241.986L-251.827 241.156L-251.735 240.325L-251.634 239.495L-251.524 238.665L-251.404 237.835L-251.276 237.006L-251.138 236.177L-250.991 235.348L-250.835 234.52L-250.67 233.693L-250.496 232.866L-250.313 232.041L-250.121 231.216L-249.919 230.392L-249.709 229.569L-249.489 228.748L-249.26 227.928L-249.022 227.109L-248.775 226.292L-248.519 225.476L-248.254 224.662L-247.98 223.849L-247.697 223.039L-247.404 222.23L-247.103 221.423L-246.793 220.619L-246.473 219.816L-246.145 219.016L-245.808 218.218L-245.461 217.423L-245.106 216.63L-244.742 215.84L-244.369 215.052L-243.987 214.267L-243.596 213.485L-243.197 212.706L-242.788 211.93L-242.371 211.157L-241.945 210.388L-241.511 209.621L-241.067 208.858L-240.615 208.099L-240.155 207.343L-239.685 206.591L-239.208 205.842L-238.721 205.097L-238.226 204.356L-237.723 203.62L-237.211 202.887L-236.691 202.158L-236.163 201.434L-235.626 200.713L-235.081 199.998L-234.527 199.287L-233.966 198.58L-233.396 197.878L-232.818 197.18L-232.232 196.488L-231.638 195.8L-231.036 195.118L-230.427 194.44L-229.809 193.768L-229.183 193.1L-228.55 192.438L-227.909 191.782L-227.26 191.131L-226.604 190.485L-225.94 189.845L-225.268 189.211L-224.589 188.582L-223.903 187.959L-223.209 187.342L-222.508 186.732L-221.8 186.127L-221.085 185.528L-220.362 184.936L-219.633 184.349L-218.896 183.769L-218.153 183.196L-217.403 182.629L-216.646 182.069L-215.882 181.515L-215.111 180.968L-214.334 180.427L-213.551 179.894L-212.76 179.367L-211.964 178.848L-211.161 178.335L-210.352 177.83L-209.537 177.332L-208.716 176.841L-207.888 176.357L-207.055 175.881L-206.216 175.412L-205.371 174.95L-204.52 174.496L-203.664 174.05L-202.802 173.612L-201.935 173.181L-201.062 172.758L-200.184 172.342L-199.301 171.935L-198.412 171.536L-197.519 171.145L-196.62 170.761L-195.716 170.386L-194.808 170.019L-193.895 169.661L-192.977 169.31L-192.055 168.968L-191.128 168.634L-190.197 168.309L-189.261 167.992L-188.322 167.684L-187.378 167.385L-186.43 167.094L-185.478 166.811L-184.522 166.538L-183.563 166.273L-182.6 166.017L-181.633 165.77L-180.663 165.531L-179.689 165.302L-178.712 165.081L-177.732 164.87L-176.749 164.668L-175.762 164.474L-174.773 164.29L-173.781 164.115L-172.786 163.95L-171.789 163.793L-170.789 163.646L-169.787 163.508L-168.782 163.379L-167.775 163.26L-166.766 163.15L-165.755 163.049L-164.742 162.958L-163.728 162.876L-162.711 162.804L-161.693 162.741L-160.673 162.688L-159.652 162.645L-158.63 162.611L-157.606 162.586L-156.582 162.572L-155.556 162.566L-154.529 162.571L-153.502 162.585L-152.474 162.609L-151.445 162.642L-150.416 162.686L-149.386 162.739L-148.356 162.801L-147.326 162.874L-146.296 162.956L-145.266 163.048L-144.237 163.15L-143.207 163.261L-142.178 163.382L-141.149 163.514L-140.121 163.654L-139.093 163.805L-138.067 163.966L-137.041 164.136L-136.016 164.316L-134.993 164.506L-133.97 164.705L-132.949 164.915L-131.929 165.134L-130.911 165.363L-129.895 165.602L-128.88 165.85L-127.867 166.109L-126.856 166.377L-125.848 166.654L-124.841 166.942L-123.837 167.239L-122.835 167.546L-121.836 167.862L-120.839 168.188L-119.845 168.524L-118.854 168.87L-117.865 169.225L-116.88 169.59L-115.898 169.964L-114.92 170.348L-113.944 170.741L-112.972 171.144L-112.004 171.556L-111.039 171.978L-110.078 172.409L-109.121 172.849L-108.168 173.299L-107.22 173.758L-106.275 174.227L-105.335 174.705L-104.399 175.191L-103.467 175.688L-102.541 176.193L-101.619 176.707L-100.701 177.231L-99.7893 177.764L-98.882 178.305L-97.98 178.856L-97.0832 179.415L-96.1917 179.984L-95.3057 180.561L-94.4252 181.147L-93.5503 181.742L-92.6812 182.345L-91.818 182.957L-90.9606 183.578L-90.1094 184.207L-89.2642 184.845L-88.4253 185.491L-87.5927 186.146L-86.7666 186.809L-85.947 187.48L-85.134 188.16L-84.3276 188.847L-83.5281 189.543L-82.7355 190.247L-81.9499 190.959L-81.1714 191.679L-80.4001 192.406L-79.636 193.142L-78.8793 193.885L-78.13 194.636L-77.3883 195.395L-76.6541 196.161L-75.9277 196.935L-75.2091 197.716L-74.4984 198.504L-73.7957 199.3L-73.101 200.103L-72.4144 200.913L-71.7361 201.731L-71.0661 202.555L-70.4045 203.386L-69.7514 204.224L-69.1068 205.069L-68.4708 205.921L-67.8436 206.779L-67.2251 207.644L-66.6155 208.515L-66.0149 209.393L-65.4233 210.277L-64.8408 211.167L-64.2674 212.063L-63.7034 212.966L-63.1486 213.874L-62.6032 214.789L-62.0673 215.709L-61.5409 216.635L-61.0241 217.567L-60.517 218.504L-60.0196 219.446L-59.532 220.394L-59.0543 221.348L-58.5866 222.306L-58.1288 223.27L-57.6811 224.239L-57.2435 225.213L-56.8161 226.191L-56.3989 227.174L-55.9921 228.162L-55.5956 229.155L-55.2095 230.152L-54.834 231.153L-54.4689 232.159L-54.1144 233.169L-53.7706 234.183L-53.4374 235.201L-53.115 236.223L-52.8034 237.248L-52.5026 238.278L-52.2127 239.311L-51.9338 240.347L-51.6658 241.387L-51.4089 242.43L-51.163 243.477L-50.9282 244.526L-50.7046 245.578L-50.4922 246.634L-50.291 247.692L-50.1011 248.753L-49.9225 249.816L-49.7553 250.882L-49.5994 251.95L-49.4549 253.021L-49.3219 254.093L-49.2004 255.168L-49.0903 256.245L-48.9918 257.323L-48.9049 258.403L-48.8296 259.485L-48.7659 260.568L-48.7138 261.653L-48.6734 262.739L-48.6447 263.826L-48.6276 264.914L-48.6223 266.003L-48.6288 267.093L-48.647 268.184L-48.677 269.276L-48.7188 270.367L-48.7725 271.46L-48.8379 272.552L-48.9152 273.645L-49.0043 274.738L-49.1053 275.831L-49.2181 276.924L-49.3428 278.016L-49.4794 279.108L-49.6278 280.2L-49.7882 281.291L-49.9604 282.381L-50.1445 283.47L-50.3405 284.559L-50.5483 285.646L-50.768 286.732L-50.9997 287.818L-51.2431 288.901L-51.4985 289.983L-51.7657 291.064L-52.0447 292.142L-52.3356 293.219L-52.6383 294.294L-52.9528 295.367L-53.279 296.438L-53.6171 297.506L-53.9669 298.572L-54.3285 299.636L-54.7018 300.697L-55.0868 301.755L-55.4835 302.81L-55.8918 303.862L-56.3118 304.911L-56.7434 305.957L-57.1865 307L-57.6412 308.039L-58.1075 309.075L-58.5852 310.107L-59.0744 311.135L-59.575 312.16L-60.087 313.18L-60.6104 314.197L-61.1451 315.209L-61.6911 316.217L-62.2483 317.221L-62.8168 318.22L-63.3964 319.214L-63.9871 320.203L-64.5889 321.188L-65.2018 322.168L-65.8256 323.143L-66.4604 324.112L-67.106 325.077L-67.7625 326.036L-68.4298 326.989L-69.1079 327.937L-69.7966 328.879L-70.4959 329.815L-71.2058 330.746L-71.9262 331.67L-72.6571 332.588L-73.3984 333.5L-74.15 334.406L-74.912 335.305L-75.6841 336.198L-76.4663 337.084L-77.2587 337.964L-78.0611 338.836L-78.8734 339.702L-79.6956 340.56L-80.5276 341.412L-81.3694 342.256L-82.2208 343.093L-83.0819 343.923L-83.9524 344.745L-84.8324 345.559L-85.7218 346.366L-86.6205 347.165L-87.5284 347.956L-88.4454 348.739L-89.3715 349.514L-90.3066 350.281L-91.2505 351.039L-92.2033 351.79L-93.1648 352.531L-94.1349 353.265L-95.1136 353.989L-96.1007 354.705L-97.0963 355.413L-98.1001 356.111L-99.1121 356.8L-100.132 357.481L-101.16 358.152L-102.196 358.814L-103.24 359.467L-104.292 360.11L-105.351 360.744L-106.418 361.369L-107.492 361.984L-108.574 362.589L-109.662 363.184L-110.758 363.77L-111.861 364.346L-112.971 364.912L-114.088 365.468L-115.211 366.013L-116.341 366.549L-117.478 367.074L-118.621 367.589L-119.77 368.094L-120.926 368.588L-122.087 369.071L-123.255 369.544L-124.428 370.007L-125.607 370.458L-126.792 370.899L-127.982 371.329L-129.178 371.749L-130.379 372.157L-131.585 372.554L-132.797 372.94L-134.013 373.315L-135.234 373.679L-136.46 374.032L-137.69 374.374L-138.925 374.704L-140.164 375.022L-141.407 375.33L-142.655 375.626L-143.907 375.91L-145.162 376.183L-146.421 376.444L-147.684 376.694L-148.95 376.931L-150.22 377.158L-151.493 377.372L-152.769 377.575L-154.048 377.765L-155.33 377.944L-156.614 378.111L-157.902 378.266L-159.192 378.409L-160.484 378.54L-161.778 378.659L-163.075 378.766L-164.373 378.861L-165.673 378.944L-166.975 379.014L-168.279 379.072L-169.584 379.119L-170.891 379.153L-172.198 379.174L-173.507 379.184L-174.817 379.181L-176.127 379.166L-177.438 379.138L-178.75 379.099L-180.062 379.047L-181.374 378.982L-182.686 378.906L-183.999 378.816L-185.311 378.715L-186.623 378.601L-187.935 378.475L-189.246 378.336L-190.556 378.185L-191.866 378.022L-193.175 377.846L-194.482 377.658L-195.789 377.457L-197.094 377.244L-198.397 377.019L-199.699 376.781L-200.999 376.531L-202.298 376.268L-203.594 375.994L-204.888 375.706L-206.18 375.407L-207.469 375.095L-208.756 374.771L-210.041 374.435L-211.322 374.086L-212.6 373.725L-213.876 373.352L-215.148 372.967L-216.416 372.569L-217.682 372.16L-218.943 371.738L-220.201 371.304L-221.455 370.858L-222.705 370.4L-223.951 369.93L-225.192 369.448L-226.429 368.954L-227.662 368.448L-228.889 367.93L-230.112 367.401L-231.33 366.859L-232.543 366.306L-233.751 365.741L-234.953 365.165L-236.15 364.577L-237.341 363.977L-238.527 363.365L-239.707 362.743L-240.88 362.108L-242.048 361.463L-243.209 360.805L-244.364 360.137L-245.513 359.457L-246.654 358.767L-247.789 358.065L-248.918 357.352L-250.039 356.627L-251.153 355.892L-252.26 355.146L-253.359 354.39L-254.451 353.622L-255.536 352.844L-256.612 352.055L-257.681 351.255L-258.742 350.445L-259.795 349.625L-260.84 348.794L-261.876 347.952L-262.904 347.101L-263.923 346.239L-264.933 345.367L-265.935 344.486L-266.928 343.594L-267.912 342.693L-268.887 341.781L-269.852 340.86L-270.809 339.929L-271.755 338.989L-272.693 338.04L-273.62 337.081L-274.538 336.112L-275.446 335.135L-276.344 334.148L-277.231 333.153L-278.109 332.148L-278.976 331.134L-279.833 330.112L-280.68 329.081L-281.516 328.042L-282.341 326.994L-283.155 325.938L-283.958 324.873L-284.751 323.801L-285.532 322.72L-286.302 321.631L-287.061 320.534L-287.809 319.43L-288.545 318.318L-289.27 317.198L-289.983 316.071L-290.684 314.936L-291.373 313.794L-292.051 312.645L-292.716 311.489L-293.37 310.326L-294.011 309.157L-294.64 307.98L-295.257 306.797L-295.861 305.607L-296.453 304.411L-297.033 303.209L-297.6 302.001L-298.154 300.786L-298.695 299.566L-299.224 298.34L-299.74 297.108L-300.242 295.87L-300.732 294.627L-301.209 293.379L-301.672 292.126L-302.122 290.867L-302.559 289.604L-302.983 288.335L-303.393 287.062L-303.79 285.784L-304.173 284.502L-304.542 283.216L-304.898 281.925L-305.241 280.63L-305.569 279.331L-305.884 278.028L-306.185 276.722L-306.472 275.412L-306.745 274.099L-307.004 272.782L-307.249 271.462L-307.48 270.139L-307.697 268.812L-307.899 267.484L-308.088 266.152L-308.262 264.818L-308.422 263.481L-308.568 262.143L-308.699 260.802L-308.816 259.459L-308.919 258.114L-309.007 256.767L-309.081 255.419L-309.14 254.069L-309.185 252.718L-309.216 251.366L-309.231 250.012L-309.232 248.658L-309.219 247.303L-309.191 245.947L-309.149 244.591L-309.091 243.234L-309.019 241.877L-308.933 240.52L-308.832 239.163L-308.716 237.806L-308.586 236.45L-308.44 235.094L-308.281 233.738L-308.106 232.383L-307.917 231.029L-307.713 229.676L-307.494 228.324L-307.261 226.974L-307.013 225.624L-306.751 224.277L-306.473 222.931L-306.182 221.587L-305.875 220.244L-305.554 218.904L-305.218 217.566L-304.868 216.231L-304.503 214.898L-304.124 213.568L-303.73 212.24L-303.321 210.916L-302.898 209.594L-302.461 208.276L-302.009 206.961L-301.543 205.649L-301.062 204.341L-300.567 203.037L-300.058 201.737L-299.535 200.441L-298.997 199.149L-298.445 197.861L-297.879 196.578L-297.298 195.299L-296.704 194.025L-296.096 192.756L-295.473 191.492L-294.837 190.233L-294.187 188.979L-293.523 187.731L-292.845 186.488L-292.153 185.25L-291.448 184.019L-290.729 182.793L-289.996 181.574L-289.25 180.36L-288.491 179.153L-287.718 177.953L-286.932 176.759L-286.132 175.571L-285.319 174.391L-284.493 173.217L-283.654 172.051L-282.802 170.892L-281.937 169.74L-281.06 168.595L-280.169 167.458L-279.266 166.329L-278.35 165.208L-277.421 164.095L-276.48 162.989L-275.527 161.892L-274.561 160.803L-273.583 159.723L-272.593 158.651L-271.591 157.588L-270.577 156.534L-269.551 155.488L-268.513 154.452L-267.463 153.425L-266.402 152.407L-265.329 151.398L-264.245 150.399L-263.15 149.41L-262.043 148.43L-260.925 147.46L-259.796 146.5L-258.656 145.55L-257.506 144.61L-256.344 143.681L-255.172 142.762L-253.99 141.853L-252.797 140.955L-251.594 140.068L-250.38 139.191L-249.157 138.325L-247.923 137.47L-246.68 136.627L-245.427 135.794L-244.164 134.973L-242.892 134.163L-241.611 133.365L-240.32 132.578L-239.02 131.803L-237.711 131.04L-236.393 130.288L-235.066 129.549L-233.731 128.821L-232.387 128.106L-231.034 127.402L-229.674 126.712L-228.305 126.033L-226.928 125.367L-225.544 124.713L-224.151 124.072L-222.751 123.444L-221.344 122.829L-219.929 122.226L-218.507 121.636L-217.078 121.06L-215.641 120.496L-214.198 119.946L-212.749 119.408L-211.293 118.884L-209.83 118.374L-208.361 117.877L-206.886 117.393L-205.405 116.923L-203.918 116.466L-202.426 116.024L-200.928 115.594L-199.425 115.179L-197.916 114.778L-196.402 114.39L-194.883 114.017L-193.36 113.657L-191.832 113.312L-190.299 112.981L-188.762 112.664L-187.221 112.361L-185.675 112.072L-184.126 111.798L-182.573 111.538L-181.017 111.293L-179.457 111.062L-177.894 110.845L-176.327 110.643L-174.758 110.456L-173.185 110.283L-171.611 110.124L-170.033 109.981L-168.453 109.852L-166.871 109.738L-165.287 109.639L-163.702 109.554L-162.114 109.484L-160.525 109.429L-158.934 109.389L-157.342 109.364L-155.75 109.354L-154.156 109.359L-152.561 109.378L-150.966 109.413L-149.37 109.462L-147.774 109.527L-146.178 109.606L-144.582 109.7L-142.987 109.81L-141.391 109.934L-139.796 110.074L-138.202 110.228L-136.609 110.398L-135.016 110.582L-133.425 110.782L-131.835 110.996L-130.247 111.226L-128.66 111.47L-127.076 111.73L-125.493 112.004L-123.912 112.294L-122.334 112.598L-120.758 112.917L-119.185 113.252L-117.614 113.601L-116.047 113.965L-114.482 114.344L-112.921 114.738L-111.364 115.146L-109.81 115.57L-108.259 116.008L-106.713 116.461L-105.171 116.929L-103.633 117.411L-102.099 117.908L-100.57 118.42L-99.0463 118.946L-97.527 119.487L-96.0128 120.042L-94.5037 120.612L-93.0001 121.196L-91.502 121.794L-90.0095 122.407L-88.5229 123.035L-87.0424 123.676L-85.568 124.332L-84.0999 125.001L-82.6383 125.685L-81.1833 126.383L-79.7351 127.095L-78.2938 127.821L-76.8596 128.561L-75.4327 129.314L-74.0132 130.081L-72.6012 130.862L-71.1969 131.657L-69.8005 132.465L-68.4121 133.287L-67.0318 134.122L-65.6598 134.97L-64.2963 135.832L-62.9414 136.707L-61.5952 137.595L-60.2579 138.496L-58.9296 139.41L-57.6105 140.337L-56.3008 141.277L-55.0004 142.229L-53.7097 143.195L-52.4288 144.172L-51.1577 145.163L-49.8967 146.165L-48.6458 147.18L-47.4053 148.207L-46.1751 149.247L-44.9556 150.298L-43.7468 151.362L-42.5488 152.437L-41.3618 153.524L-40.1859 154.622L-39.0212 155.733L-37.8679 156.854L-36.7262 157.987L-35.596 159.132L-34.4776 160.287L-33.3711 161.454L-32.2766 162.631L-31.1942 163.82L-30.1241 165.019L-29.0663 166.228L-28.0211 167.448L-26.9885 168.679L-25.9686 169.92L-24.9615 171.171L-23.9674 172.432L-22.9864 173.703L-22.0186 174.984L-21.0641 176.274L-20.123 177.575L-19.1955 178.884L-18.2816 180.203L-17.3814 181.531L-16.4951 182.868L-15.6227 184.215L-14.7644 185.57L-13.9202 186.934L-13.0903 188.306L-12.2748 189.687L-11.4737 191.076L-10.6872 192.473L-9.9153 193.878L-9.15817 195.292L-8.41586 196.713L-7.68848 198.141L-6.97613 199.578L-6.27886 201.021L-5.5968 202.472L-4.93001 203.93L-4.27857 205.395L-3.64257 206.867L-3.0221 208.345L-2.41724 209.83L-1.82804 211.322L-1.25462 212.819L-0.697015 214.323L-0.155312 215.833L0.370412 217.348L0.880087 218.869L1.37365 220.396L1.85104 221.928L2.31217 223.465L2.757 225.008L3.18545 226.555L3.59748 228.107L3.993 229.664L4.37198 231.225L4.73434 232.79L5.08005 234.36L5.40905 235.933L5.72129 237.511L6.01672 239.092L6.29527 240.676L6.55693 242.264L6.80164 243.856L7.02935 245.45L7.24002 247.047L7.43363 248.647L7.61011 250.25L7.76947 251.855L7.91163 253.462L8.03658 255.071L8.14429 256.683L8.23473 258.296L8.30786 259.91L8.36366 261.527L8.40212 263.144L8.42322 264.763L8.42691 266.382L8.4132 268.003L8.38206 269.624L8.33348 271.245L8.26744 272.867L8.18393 274.489L8.08295 276.111L7.96449 277.733L7.82853 279.355L7.67508 280.976L7.50412 282.596L7.31567 284.216L7.10972 285.834L6.88629 287.452L6.64535 289.068L6.38693 290.683L6.11103 292.296L5.81767 293.907L5.50685 295.516L5.1786 297.123L4.83291 298.728L4.46982 300.33L4.08933 301.93L3.69147 303.527L3.27627 305.12L2.84374 306.711L2.39391 308.299L1.92681 309.883L1.44247 311.463L0.940924 313.04L0.422188 314.612L-0.11368 316.181L-0.666651 317.745L-1.2367 319.305L-1.82376 320.86L-2.42782 322.411L-3.04882 323.956L-3.68671 325.497L-4.34145 327.032L-5.013 328.562L-5.70129 330.086L-6.40628 331.604L-7.12791 333.117L-7.86612 334.624L-8.62087 336.124L-9.39209 337.618L-10.1797 339.105L-10.9837 340.586L-11.8039 342.06L-12.6404 343.527L-13.493 344.987L-14.3617 346.44L-15.2464 347.885L-16.147 349.322L-17.0635 350.752L-17.9958 352.174L-18.9438 353.588L-19.9074 354.994L-20.8865 356.391L-21.8811 357.779L-22.8911 359.159L-23.9163 360.531L-24.9568 361.893L-26.0123 363.246L-27.0829 364.59L-28.1684 365.925L-29.2688 367.25L-30.3838 368.565L-31.5135 369.87L-32.6578 371.166L-33.8164 372.451L-34.9894 373.726L-36.1767 374.991L-37.378 376.245L-38.5934 377.489L-39.8227 378.722L-41.0658 379.944L-42.3225 381.154L-43.5929 382.354L-44.8767 383.542L-46.1738 384.719L-47.4841 385.884L-48.8076 387.037L-50.144 388.179L-51.4934 389.309L-52.8554 390.426L-54.2301 391.531L-55.6172 392.624L-57.0167 393.704L-58.4284 394.772L-59.8523 395.827L-61.2881 396.87L-62.7357 397.899L-64.195 398.915L-65.6659 399.918L-67.1482 400.908L-68.6419 401.884L-70.1466 402.847L-71.6624 403.796L-73.189 404.731L-74.7264 405.653L-76.2743 406.56L-77.8327 407.454L-79.4013 408.333L-80.9801 409.198L-82.5689 410.048L-84.1675 410.884L-85.7758 411.706L-87.3936 412.513L-89.0208 413.305L-90.6572 414.082L-92.3027 414.844L-93.9571 415.591L-95.6203 416.323L-97.292 417.04L-98.9722 417.742L-100.661 418.428L-102.357 419.098L-104.062 419.753L-105.774 420.393L-107.494 421.016L-109.221 421.624L-110.956 422.216L-112.698 422.792L-114.446 423.352L-116.202 423.895L-117.964 424.423L-119.732 424.934L-121.507 425.429L-123.288 425.908L-125.074 426.37L-126.867 426.816L-128.665 427.245L-130.468 427.657L-132.277 428.053L-134.091 428.432L-135.909 428.794L-137.732 429.14L-139.56 429.468L-141.392 429.78L-143.228 430.074L-145.068 430.352L-146.912 430.612L-148.759 430.855L-150.61 431.081L-152.464 431.29L-154.322 431.481L-156.181 431.656L-158.044 431.812L-159.909 431.952L-161.777 432.074L-163.646 432.179L-165.517 432.266L-167.391 432.336L-169.265 432.388L-171.141 432.423L-173.019 432.44L-174.897 432.44L-176.776 432.422L-178.655 432.387L-180.536 432.333L-182.416 432.263L-184.296 432.174L-186.176 432.068L-188.056 431.945L-189.935 431.804L-191.814 431.645L-193.691 431.468L-195.568 431.274L-197.443 431.062L-199.317 430.833L-201.189 430.585L-203.059 430.321L-204.927 430.038L-206.793 429.738L-208.657 429.421L-210.518 429.086L-212.376 428.733L-214.231 428.363L-216.082 427.975L-217.931 427.57L-219.776 427.147L-221.617 426.707L-223.454 426.249L-225.287 425.774L-227.116 425.282L-228.94 424.772L-230.759 424.245L-232.573 423.701L-234.383 423.139L-236.187 422.561L-237.986 421.965L-239.779 421.352L-241.566 420.722L-243.347 420.075L-245.122 419.411L-246.89 418.731L-248.652 418.033L-250.408 417.319L-252.156 416.588L-253.897 415.84L-255.631 415.076L-257.357 414.295L-259.076 413.497L-260.786 412.683L-262.489 411.853L-264.184 411.007L-265.87 410.144L-267.547 409.265L-269.216 408.37L-270.876 407.459L-272.527 406.532L-274.168 405.589L-275.8 404.631L-277.423 403.657L-279.036 402.667L-280.638 401.662L-282.231 400.641L-283.813 399.605L-285.385 398.554L-286.946 397.487L-288.496 396.406L-290.035 395.309L-291.563 394.198L-293.08 393.072L-294.585 391.931L-296.079 390.775L-297.561 389.606L-299.031 388.421L-300.489 387.223L-301.934 386.01L-303.367 384.784L-304.788 383.543L-306.195 382.289L-307.59 381.021L-308.972 379.739L-310.341 378.444L-311.696 377.135L-313.037 375.813L-314.366 374.478L-315.68 373.131L-316.98 371.77L-318.266 370.396L-319.538 369.01L-320.796 367.612L-322.039 366.201L-323.267 364.777L-324.481 363.342L-325.68 361.895L-326.863 360.436L-328.032 358.965L-329.185 357.483L-330.322 355.989L-331.444 354.484L-332.551 352.968L-333.641 351.441L-334.716 349.903L-335.774 348.354L-336.817 346.795L-337.842 345.226L-338.852 343.646L-339.845 342.056L-340.821 340.456L-341.78 338.846L-342.723 337.227L-343.648 335.598L-344.557 333.96L-345.448 332.312L-346.321 330.656L-347.178 328.99L-348.017 327.316L-348.838 325.634L-349.641 323.943L-350.427 322.244L-351.194 320.537L-351.944 318.821L-352.675 317.099L-353.388 315.368L-354.083 313.63L-354.76 311.885L-355.418 310.133L-356.057 308.374L-356.678 306.609L-357.28 304.837L-357.864 303.058L-358.428 301.273L-358.973 299.482L-359.5 297.686L-360.007 295.884L-360.495 294.076L-360.964 292.263L-361.414 290.444L-361.844 288.621L-362.255 286.793L-362.647 284.961L-363.019 283.124L-363.371 281.282L-363.704 279.437L-364.017 277.588L-364.31 275.735L-364.583 273.879L-364.837 272.019L-365.071 270.156L-365.285 268.291L-365.479 266.422L-365.652 264.551L-365.806 262.677L-365.94 260.802L-366.054 258.924L-366.147 257.044L-366.221 255.163L-366.274 253.281L-366.307 251.397L-366.32 249.512L-366.312 247.626L-366.285 245.739L-366.237 243.852L-366.168 241.965L-366.08 240.077L-365.971 238.19L-365.842 236.302L-365.692 234.415L-365.522 232.529L-365.332 230.644L-365.121 228.76L-364.891 226.876L-364.639 224.995L-364.368 223.115L-364.076 221.236L-363.764 219.36L-363.432 217.485L-363.079 215.614L-362.706 213.744L-362.313 211.878L-361.9 210.014L-361.467 208.153L-361.013 206.296L-360.539 204.442L-360.045 202.592L-359.531 200.746L-358.998 198.904L-358.444 197.066L-357.87 195.232L-357.276 193.403L-356.662 191.579L-356.029 189.76L-355.376 187.946L-354.703 186.138L-354.01 184.335L-353.297 182.538L-352.566 180.747L-351.814 178.962L-351.043 177.183L-350.253 175.411L-349.443 173.645L-348.614 171.886L-347.766 170.135L-346.899 168.39L-346.013 166.653L-345.107 164.924L-344.183 163.202L-343.24 161.488L-342.278 159.783L-341.298 158.086L-340.299 156.397L-339.281 154.717L-338.245 153.046L-337.19 151.383L-336.118 149.73L-335.027 148.087L-333.918 146.453L-332.791 144.828L-331.646 143.214L-330.484 141.61L-329.304 140.016L-328.106 138.432L-326.891 136.859L-325.658 135.296L-324.408 133.745L-323.141 132.204L-321.857 130.675L-320.556 129.157L-319.238 127.651L-317.904 126.157L-316.553 124.674L-315.186 123.204L-313.802 121.745L-312.402 120.299L-310.986 118.866L-309.554 117.445L-308.107 116.037L-306.643 114.642L-305.164 113.261L-303.67 111.892L-302.161 110.537L-300.636 109.196L-299.096 107.868L-297.542 106.554L-295.973 105.254L-294.389 103.969L-292.791 102.697L-291.179 101.44L-289.552 100.198L-287.912 98.9704L-286.258 97.7577L-284.59 96.5599L-282.908 95.3773L-281.214 94.21L-279.506 93.0581L-277.785 91.9217L-276.051 90.8009L-274.305 89.6959L-272.546 88.6068L-270.775 87.5338L-268.992 86.4769L-267.196 85.4363L-265.389 84.412L-263.57 83.4043L-261.739 82.4132L-259.898 81.4388L-258.045 80.4812L-256.181 79.5407L-254.306 78.6172L-252.421 77.7108L-250.525 76.8218L-248.619 75.9501L-246.703 75.0959L-244.777 74.2594L-242.842 73.4405L-240.897 72.6394L-238.942 71.8561L-236.979 71.0909L-235.006 70.3437L-233.025 69.6147L-231.035 68.9039L-229.037 68.2115L-227.03 67.5375L-225.016 66.882L-222.994 66.2451L-220.964 65.6268L-218.927 65.0273L-216.883 64.4466L-214.832 63.8849L-212.774 63.3421L-210.709 62.8183L-208.638 62.3136L-206.561 61.8281L-204.478 61.3619L-202.389 60.9149L-200.294 60.4873L-198.195 60.0792L-196.09 59.6905L-193.98 59.3214L-191.865 58.9718L-189.746 58.6419L-187.622 58.3317L-185.495 58.0413L-183.363 57.7706L-181.228 57.5198L-179.089 57.2888L-176.947 57.0777L-174.802 56.8866L-172.655 56.7155L-170.504 56.5644L-168.351 56.4334L-166.197 56.3224L-164.04 56.2316L-161.881 56.1609L-159.721 56.1103L-157.559 56.08L-155.396 56.0698L-153.233 56.0799L-151.068 56.1102L-148.904 56.1607L-146.739 56.2316L-144.574 56.3227L-142.409 56.434L-140.245 56.5657L-138.081 56.7177L-135.918 56.8899L-133.756 57.0825L-131.596 57.2953L-129.437 57.5284L-127.28 57.7818L-125.124 58.0555L-122.971 58.3494L-120.82 58.6635L-118.672 58.998L-116.527 59.3526L-114.385 59.7274L-112.245 60.1224L-110.11 60.5375L-107.978 60.9728L-105.85 61.4282L-103.726 61.9036L-101.607 62.3991L-99.4918 62.9146L-97.3816 63.45L-95.2765 64.0054L-93.1766 64.5807L-91.0821 65.1759L-88.9932 65.7908L-86.9102 66.4255L-84.8333 67.08L-82.7627 67.7541L-80.6985 68.4478L-78.6411 69.1611L-76.5906 69.8938L-74.5473 70.6461L-72.5113 71.4177L-70.4829 72.2086L-68.4622 73.0189L-66.4495 73.8483L-64.4451 74.6968L-62.449 75.5644L-60.4615 76.451L-58.4829 77.3565L-56.5133 78.2808L-54.5529 79.2239L-52.6019 80.1857L-50.6606 81.1661L-48.7292 82.165L-46.8077 83.1824L-44.8966 84.218L-42.9958 85.272L-41.1057 86.3441L-39.2265 87.4342L-37.3583 88.5424L-35.5014 89.6684L-33.6559 90.8122L-31.822 91.9737L-30 93.1528L-28.1899 94.3493L-26.3921 95.5632L-24.6067 96.7944L-22.8339 98.0427L-21.0739 99.308L-19.3269 100.59L-17.593 101.889L-15.8724 103.205L-14.1654 104.537L-12.4721 105.886L-10.7926 107.251L-9.1273 108.633L-7.4762 110.03L-5.83954 111.444L-4.21746 112.873L-2.61019 114.318L-1.01786 115.778L0.559337 117.254L2.12123 118.745L3.66767 120.251L5.19846 121.773L6.71345 123.309L8.21246 124.86L9.69536 126.425L11.1619 128.005L12.6121 129.599L14.0456 131.208L15.4624 132.83L16.8622 134.466L18.2449 136.116L19.6104 137.779L20.9585 139.456L22.2891 141.146L23.602 142.849L24.897 144.565L26.1741 146.294L27.433 148.035L28.6737 149.789L29.896 151.555L31.0998 153.332L32.2848 155.122L33.4511 156.924L34.5984 158.737L35.7266 160.562L36.8357 162.397L37.9254 164.244L38.9956 166.102L40.0463 167.97L41.0773 169.849L42.0884 171.738L43.0797 173.637L44.0508 175.546L45.0018 177.465L45.9325 179.394L46.8429 181.332L47.7327 183.279L48.6019 185.235L49.4505 187.2L50.2782 189.174L51.085 191.156L51.8708 193.146L52.6355 195.144L53.379 197.151L54.1012 199.165L54.802 201.186L55.4814 203.215L56.1392 205.25L56.7754 207.293L57.3899 209.342L57.9825 211.398L58.5533 213.46L59.1022 215.528L59.629 217.602L60.1338 219.682L60.6164 221.767L61.0767 223.858L61.5148 225.953L61.9305 228.053L62.3238 230.158L62.6947 232.268L63.043 234.381L63.3687 236.499L63.6719 238.62L63.9523 240.745L64.21 242.873L64.445 245.005L64.6572 247.139L64.8465 249.277L65.0129 251.416L65.1564 253.558L65.277 255.702L65.3745 257.848L65.4491 259.996L65.5006 262.145L65.5291 264.296L65.5345 266.447L65.5168 268.599L65.476 270.752L65.4121 272.905L65.325 275.059L65.2148 277.212L65.0814 279.365L64.9249 281.518L64.7452 283.669L64.5423 285.82L64.3163 287.97L64.0671 290.118L63.7948 292.265L63.4993 294.41L63.1807 296.553L62.839 298.694L62.4742 300.833L62.0863 302.968L61.6753 305.101L61.2413 307.231L60.7843 309.357L60.3043 311.48L59.8014 313.599L59.2756 315.714L58.7268 317.825L58.1552 319.932L57.5609 322.034L56.9437 324.131L56.3038 326.223L55.6413 328.31L54.9561 330.392L54.2484 332.467L53.5181 334.537L52.7654 336.601L51.9903 338.658L51.1928 340.709L50.373 342.753L49.5311 344.791L48.6669 346.821L47.7808 348.843L46.8725 350.858L45.9424 352.866L44.9904 354.865L44.0166 356.856L43.0212 358.839L42.0041 360.813L40.9655 362.778L39.9054 364.734L38.824 366.681L37.7214 368.618L36.5976 370.546L35.4527 372.464L34.2868 374.372L33.1001 376.27L31.8926 378.157L30.6645 380.034L29.4158 381.9L28.1467 383.755L26.8572 385.598L25.5476 387.43L24.2178 389.251L22.8681 391.06L21.4985 392.856L20.1092 394.641L18.7002 396.413L17.2718 398.173L15.824 399.919L14.357 401.653L12.8709 403.374L11.3658 405.082L9.84197 406.776L8.29941 408.456L6.73832 410.122L5.15883 411.775L3.56109 413.413L1.94524 415.037L0.311423 416.646L-1.34019 418.241L-3.00946 419.821L-4.69622 421.385L-6.40034 422.935L-8.12163 424.469L-9.85995 425.987L-11.6151 427.49L-13.387 428.977L-15.1754 430.447L-16.9802 431.902L-18.8012 433.34L-20.6382 434.762L-22.491 436.166L-24.3596 437.555L-26.2436 438.926L-28.143 440.28L-30.0575 441.616L-31.9869 442.935L-33.9312 444.237L-35.8901 445.521L-37.8633 446.787L-39.8508 448.035L-41.8523 449.264L-43.8677 450.476L-45.8967 451.669L-47.9392 452.844L-49.9949 453.999L-52.0637 455.136L-54.1454 456.254L-56.2397 457.353L-58.3465 458.433L-60.4656 459.493L-62.5967 460.534L-64.7397 461.556L-66.8943 462.557L-69.0604 463.539L-71.2377 464.501L-73.426 465.443L-75.6251 466.365L-77.8349 467.266L-80.055 468.148L-82.2852 469.008L-84.5255 469.849L-86.7754 470.668L-89.0349 471.467L-91.3036 472.245L-93.5814 473.002L-95.8681 473.737L-98.1634 474.452L-100.467 475.146L-102.779 475.818L-105.099 476.469L-107.426 477.098L-109.761 477.706L-112.104 478.292L-114.453 478.857L-116.809 479.399L-119.172 479.92L-121.541 480.419L-123.916 480.896L-126.297 481.351L-128.684 481.784L-131.076 482.195L-133.473 482.583L-135.875 482.949L-138.282 483.293L-140.693 483.615L-143.109 483.914L-145.528 484.19L-147.951 484.444L-150.378 484.676L-152.808 484.884L-155.241 485.071L-157.676 485.234L-160.115 485.375L-162.555 485.493L-164.997 485.588L-167.442 485.661L-169.888 485.71L-172.335 485.737L-174.783 485.741L-177.232 485.722L-179.681 485.68L-182.131 485.615L-184.581 485.528L-187.031 485.417L-189.48 485.283L-191.929 485.127L-194.377 484.948L-196.823 484.745L-199.268 484.52L-201.712 484.272L-204.153 484L-206.593 483.706L-209.03 483.389L-211.464 483.049L-213.896 482.687L-216.324 482.301L-218.749 481.893L-221.171 481.461L-223.588 481.007L-226.001 480.531L-228.41 480.031L-230.815 479.509L-233.214 478.964L-235.609 478.397L-237.998 477.807L-240.381 477.194L-242.759 476.559L-245.13 475.902L-247.495 475.222L-249.854 474.52L-252.206 473.796L-254.551 473.049L-256.888 472.28L-259.218 471.489L-261.54 470.676L-263.854 469.841L-266.16 468.985L-268.458 468.106L-270.746 467.206L-273.026 466.284L-275.297 465.34L-277.558 464.375L-279.809 463.388L-282.051 462.38L-284.282 461.351L-286.503 460.3L-288.714 459.229L-290.913 458.136L-293.102 457.022L-295.279 455.888L-297.445 454.733L-299.599 453.557L-301.741 452.361L-303.871 451.145L-305.988 449.908L-308.093 448.651L-310.185 447.373L-312.264 446.076L-314.33 444.759L-316.382 443.422L-318.42 442.066L-320.445 440.69L-322.455 439.295L-324.451 437.881L-326.432 436.447L-328.399 434.995L-330.35 433.523L-332.287 432.033L-334.208 430.524L-336.113 428.997L-338.003 427.452L-339.876 425.888L-341.734 424.307L-343.574 422.707L-345.399 421.09L-347.206 419.455L-348.997 417.803L-350.77 416.134L-352.526 414.447L-354.264 412.744L-355.985 411.024L-357.687 409.287L-359.372 407.533L-361.038 405.764L-362.686 403.978L-364.315 402.176L-365.925 400.358L-367.516 398.525L-369.088 396.676L-370.641 394.812L-372.174 392.933L-373.687 391.039L-375.181 389.131L-376.654 387.207L-378.107 385.27L-379.54 383.318L-380.952 381.352L-382.344 379.372L-383.715 377.379L-385.065 375.372L-386.393 373.352L-387.701 371.319L-388.987 369.273L-390.251 367.214L-391.494 365.143L-392.715 363.06L-393.914 360.964L-395.09 358.857L-396.245 356.738L-397.377 354.608L-398.486 352.466L-399.573 350.313L-400.637 348.15L-401.678 345.975L-402.696 343.791L-403.691 341.596L-404.663 339.391L-405.612 337.177L-406.536 334.952L-407.438 332.719L-408.315 330.476L-409.169 328.225L-409.999 325.965L-410.805 323.696L-411.586 321.419L-412.344 319.134L-413.077 316.841L-413.786 314.541L-414.47 312.233L-415.13 309.919L-415.765 307.597L-416.375 305.269L-416.961 302.934L-417.522 300.593L-418.058 298.246L-418.568 295.893L-419.054 293.535L-419.514 291.172L-419.949 288.803L-420.359 286.43L-420.744 284.052L-421.103 281.67L-421.437 279.283L-421.745 276.893L-422.028 274.499L-422.285 272.102L-422.516 269.702L-422.722 267.299L-422.901 264.893L-423.056 262.484L-423.184 260.074L-423.286 257.661L-423.363 255.247L-423.414 252.832L-423.439 250.415L-423.438 247.997L-423.411 245.578L-423.358 243.159L-423.279 240.74L-423.174 238.321L-423.043 235.901L-422.886 233.483L-422.703 231.065L-422.494 228.648L-422.259 226.232L-421.998 223.818L-421.711 221.405L-421.398 218.995L-421.059 216.586L-420.694 214.18L-420.304 211.777L-419.887 209.376L-419.444 206.979L-418.976 204.585L-418.482 202.195L-417.962 199.808L-417.416 197.426L-416.844 195.048L-416.247 192.675L-415.624 190.307L-414.976 187.943L-414.302 185.585L-413.602 183.233L-412.877 180.886L-412.127 178.546L-411.351 176.212L-410.55 173.884L-409.724 171.563L-408.873 169.249L-407.996 166.942L-407.095 164.643L-406.169 162.352L-405.218 160.068L-404.242 157.793L-403.241 155.526L-402.216 153.268L-401.166 151.018L-400.091 148.778L-398.993 146.547L-397.87 144.326L-396.723 142.115L-395.552 139.913L-394.357 137.722L-393.138 135.542L-391.895 133.372L-390.629 131.213L-389.339 129.065L-388.026 126.929L-386.689 124.804L-385.329 122.691L-383.947 120.59L-382.541 118.502L-381.112 116.426L-379.661 114.363L-378.187 112.312L-376.691 110.275L-375.172 108.251L-373.632 106.241L-372.069 104.245L-370.484 102.262L-368.878 100.294L-367.25 98.34L-365.601 96.4008L-363.93 94.4765L-362.239 92.5671L-360.526 90.673L-358.793 88.7944L-357.038 86.9314L-355.264 85.0842L-353.469 83.253L-351.654 81.4381L-349.819 79.6396L-347.964 77.8577L-346.089 76.0926L-344.195 74.3445L-342.282 72.6135L-340.349 70.8999L-338.398 69.2039L-336.428 67.5256L-334.439 65.8652L-332.432 64.2229L-330.407 62.5989L-328.363 60.9933L-326.302 59.4063L-324.223 57.8381L-322.127 56.2889L-320.014 54.7588L-317.884 53.248L-315.736 51.7567L-313.573 50.2849L-311.393 48.833L-309.196 47.401L-306.984 45.9891L-304.756 44.5974L-302.512 43.2262L-300.253 41.8755L-297.979 40.5455L-295.69 39.2364L-293.386 37.9483L-291.068 36.6814L-288.735 35.4357L-286.389 34.2114L-284.029 33.0088L-281.655 31.8278L-279.267 30.6687L-276.867 29.5315L-274.454 28.4164L-272.028 27.3235L-269.59 26.253L-267.14 25.205L-264.677 24.1795L-262.203 23.1768L-259.718 22.1969L-257.221 21.2399L-254.714 20.306L-252.195 19.3952L-249.667 18.5077L-247.127 17.6435L-244.578 16.8029L-242.02 15.9858L-239.452 15.1924L-236.874 14.4227L-234.288 13.6769L-231.692 12.9551L-229.089 12.2573L-226.477 11.5836L-223.857 10.9342L-221.23 10.309L-218.595 9.7082L-215.953 9.13185L-213.304 8.58002L-210.648 8.05279L-207.986 7.55022L-205.318 7.07238L-202.644 6.61933L-199.964 6.19114L-197.279 5.78787L-194.589 5.40957L-191.895 5.0563L-189.195 4.72811L-186.492 4.42506L-183.784 4.14717L-181.073 3.89452L-178.358 3.66712L-175.64 3.46503L-172.919 3.28828L-170.195 3.13691L-167.47 3.01095L-164.742 2.91042L-162.012 2.83536L-159.28 2.78578L-156.548 2.76172L-153.814 2.76319L-151.08 2.79021L-148.345 2.84279L-145.61 2.92094L-142.875 3.02467L-140.14 3.15399L-137.406 3.30891L-134.673 3.48942L-131.941 3.69552L-129.211 3.92722L-126.482 4.18449L-123.755 4.46734L-121.031 4.77576L-118.309 5.10972L-115.59 5.46922L-112.875 5.85422L-110.162 6.26472L-107.454 6.70069L-104.749 7.16209L-102.048 7.64891L-99.352 8.1611L-96.6607 8.69864L-93.9744 9.26148L-91.2934 9.84959L-88.618 10.4629L-85.9484 11.1014L-83.285 11.7651L-80.628 12.4538L-77.9777 13.1676L-75.3343 13.9063L-72.6981 14.6699L-70.0694 15.4584L-67.4484 16.2717L-64.8355 17.1097L-62.2308 17.9724L-59.6347 18.8597L-57.0474 19.7714L-54.4692 20.7077L-51.9004 21.6682L-49.3412 22.6531L-46.7918 23.6622L-44.2526 24.6953L-41.7238 25.7525L-39.2057 26.8337L-36.6985 27.9387L-34.2024 29.0674L-31.7178 30.2198L-29.2449 31.3957L-26.784 32.595L-24.3353 33.8177L-21.899 35.0637L-19.4755 36.3327L-17.0649 37.6248L-14.6675 38.9398L-12.2836 40.2775L-9.91344 41.6379L-7.55722 43.0209L-5.21521 44.4262L-2.88766 45.8539L-0.574799 47.3037L1.72312 48.7755L4.00585 50.2692L6.27317 51.7847L8.52483 53.3218L10.7606 54.8803L12.9803 56.4603L15.1835 58.0614L17.3702 59.6835L19.5401 61.3265L21.6929 62.9903L23.8284 64.6747L25.9464 66.3795L28.0467 68.1046L30.1291 69.8498L32.1933 71.6149L34.239 73.3999L36.2662 75.2044L38.2745 77.0284L40.2638 78.8717L42.2339 80.7341L44.1845 82.6155L46.1154 84.5156L48.0265 86.4343L49.9174 88.3714L51.7881 90.3267L53.6383 92.3L55.4678 94.2912L57.2764 96.3L59.0639 98.3263L60.8302 100.37L62.575 102.431L64.2982 104.508L65.9995 106.602L67.6788 108.713L69.3359 110.84L70.9706 112.983L72.5828 115.142L74.1722 117.317L75.7386 119.507L77.282 121.712L78.8022 123.933L80.2989 126.168L81.772 128.418L83.2214 130.682L84.6468 132.96L86.0482 135.253L87.4254 137.559L88.7781 139.879L90.1064 142.211L91.4099 144.557L92.6886 146.916L93.9424 149.288L95.171 151.671L96.3744 154.067L97.5523 156.475L98.7048 158.895L99.8316 161.326L100.933 163.768L102.008 166.221L103.057 168.685L104.08 171.159L105.076 173.644L106.046 176.139L106.99 178.643L107.907 181.157L108.797 183.68L109.661 186.212L110.497 188.753L111.307 191.303L112.089 193.861L112.844 196.426L113.572 199L114.272 201.581L114.945 204.169L115.59 206.765L116.208 209.367L116.798 211.975L117.36 214.59L117.894 217.211L118.4 219.837L118.878 222.469L119.328 225.107L119.749 227.749L120.143 230.395L120.508 233.047L120.845 235.702L121.153 238.361L121.433 241.024L121.684 243.69L121.907 246.359L122.102 249.031L122.267 251.706L122.404 254.383L122.513 257.062L122.592 259.742L122.643 262.424L122.665 265.108L122.659 267.792L122.623 270.477L122.559 273.162L122.466 275.848L122.344 278.533L122.193 281.218L122.014 283.903L121.805 286.586L121.568 289.268L121.302 291.949L121.007 294.628L120.683 297.305L120.33 299.979L119.949 302.651L119.539 305.32L119.1 307.987L118.632 310.649L118.136 313.308L117.611 315.964L117.057 318.615L116.475 321.261L115.864 323.903L115.225 326.54L114.557 329.171L113.861 331.797L113.137 334.418L112.384 337.032L111.603 339.64L110.794 342.241L109.957 344.836L109.091 347.423L108.198 350.003L107.277 352.575L106.328 355.14L105.351 357.696L104.346 360.244L103.314 362.783L102.255 365.313L101.168 367.834L100.053 370.345L98.9117 372.847L97.743 375.339L96.5473 377.82L95.3246 380.291L94.0751 382.751L92.7989 385.201L91.4961 387.639L90.1669 390.065L88.8112 392.48L87.4293 394.882L86.0213 397.273L84.5873 399.651L83.1274 402.016L81.6417 404.368L80.1304 406.707L78.5937 409.032L77.0316 411.344L75.4444 413.642L73.832 415.925L72.1948 418.194L70.5328 420.449L68.8462 422.688L67.1352 424.912L65.3999 427.121L63.6404 429.314L61.8569 431.492L60.0497 433.653L58.2188 435.798L56.3644 437.927L54.4867 440.038L52.5859 442.133L50.6622 444.211L48.7157 446.271L46.7466 448.313L44.755 450.338L42.7413 452.345L40.7055 454.333L38.6479 456.303L36.5686 458.254L34.4679 460.186L32.346 462.099L30.2029 463.993L28.039 465.867L25.8545 467.722L23.6495 469.556L21.4243 471.371L19.1791 473.165L16.9141 474.939L14.6294 476.692L12.3254 478.424L10.0023 480.135L7.66018 481.825L5.29937 483.493L2.92008 485.14L0.522512 486.765L-1.89307 488.368L-4.32645 489.949L-6.7774 491.507L-9.24567 493.043L-11.731 494.557L-14.2333 496.047L-16.7521 497.515L-19.2873 498.959L-21.8386 500.38L-24.4058 501.778L-26.9887 503.152L-29.5869 504.503L-32.2002 505.829L-34.8285 507.131L-37.4713 508.409L-40.1285 509.663L-42.7998 510.892L-45.485 512.097L-48.1837 513.277L-50.8958 514.432L-53.6209 515.562L-56.3589 516.666L-59.1093 517.746L-61.872 518.8L-64.6467 519.828L-67.4331 520.831L-70.231 521.808L-73.04 522.76L-75.8599 523.685L-78.6905 524.584L-81.5314 525.457L-84.3823 526.303L-87.243 527.123L-90.1133 527.917L-92.9927 528.684L-95.8811 529.425L-98.7781 530.138L-101.683 530.825L-104.597 531.484L-107.518 532.117L-110.447 532.723L-113.383 533.301L-116.326 533.852L-119.275 534.376L-122.231 534.872L-125.193 535.341L-128.161 535.782L-131.134 536.195L-134.112 536.581L-137.095 536.94L-140.083 537.27L-143.075 537.573L-146.071 537.847L-149.071 538.094L-152.074 538.313L-155.08 538.504L-158.089 538.667L-161.1 538.801L-164.579 272.134Z" stroke="#00715D" stroke-width="4"/>
</svg>
