<svg width="235" height="550" viewBox="0 0 235 550" fill="none" xmlns="http://www.w3.org/2000/svg">
<path opacity="0.12" d="M271.316 289.283L271.4 289.44L271.483 289.599L271.564 289.759L271.644 289.921L271.722 290.085L271.799 290.251L271.874 290.419L271.947 290.588L272.018 290.759L272.088 290.931L272.157 291.105L272.223 291.281L272.288 291.458L272.351 291.637L272.412 291.818L272.472 292L272.529 292.184L272.585 292.369L272.639 292.555L272.69 292.743L272.74 292.933L272.788 293.124L272.834 293.316L272.878 293.51L272.92 293.705L272.96 293.901L272.998 294.099L273.034 294.298L273.068 294.498L273.1 294.699L273.129 294.902L273.156 295.105L273.182 295.31L273.205 295.516L273.225 295.723L273.244 295.932L273.26 296.141L273.274 296.351L273.286 296.562L273.295 296.774L273.303 296.987L273.307 297.201L273.31 297.416L273.31 297.632L273.308 297.848L273.303 298.066L273.296 298.284L273.286 298.502L273.274 298.722L273.26 298.942L273.243 299.163L273.224 299.384L273.202 299.606L273.178 299.828L273.151 300.051L273.122 300.275L273.09 300.499L273.055 300.723L273.018 300.947L272.979 301.172L272.936 301.398L272.892 301.623L272.844 301.849L272.794 302.075L272.742 302.302L272.687 302.528L272.629 302.754L272.568 302.981L272.505 303.208L272.439 303.434L272.371 303.661L272.3 303.887L272.226 304.114L272.149 304.34L272.07 304.566L271.988 304.792L271.904 305.018L271.817 305.243L271.727 305.469L271.634 305.693L271.539 305.918L271.441 306.142L271.34 306.366L271.237 306.589L271.13 306.811L271.021 307.033L270.91 307.255L270.796 307.476L270.679 307.696L270.559 307.915L270.436 308.134L270.311 308.352L270.183 308.569L270.053 308.786L269.919 309.001L269.784 309.216L269.645 309.429L269.503 309.642L269.359 309.853L269.213 310.064L269.063 310.273L268.911 310.482L268.757 310.689L268.599 310.895L268.439 311.099L268.277 311.303L268.111 311.505L267.943 311.706L267.773 311.905L267.6 312.103L267.424 312.3L267.246 312.495L267.065 312.688L266.881 312.88L266.695 313.07L266.507 313.259L266.316 313.446L266.122 313.631L265.926 313.815L265.727 313.997L265.526 314.177L265.323 314.355L265.117 314.531L264.908 314.705L264.697 314.878L264.484 315.048L264.268 315.216L264.05 315.383L263.83 315.547L263.607 315.709L263.382 315.869L263.155 316.027L262.925 316.182L262.693 316.335L262.459 316.486L262.223 316.635L261.984 316.781L261.743 316.925L261.5 317.067L261.255 317.206L261.008 317.343L260.759 317.477L260.507 317.608L260.254 317.737L259.999 317.863L259.741 317.987L259.482 318.108L259.22 318.226L258.957 318.342L258.692 318.455L258.424 318.565L258.155 318.672L257.885 318.776L257.612 318.878L257.337 318.977L257.061 319.072L256.783 319.165L256.504 319.255L256.222 319.341L255.939 319.425L255.655 319.506L255.369 319.583L255.081 319.658L254.792 319.729L254.501 319.797L254.209 319.862L253.915 319.923L253.62 319.982L253.324 320.037L253.026 320.089L252.727 320.137L252.427 320.183L252.125 320.224L251.822 320.263L251.518 320.298L251.213 320.33L250.907 320.358L250.599 320.382L250.291 320.404L249.982 320.421L249.671 320.436L249.36 320.446L249.048 320.453L248.735 320.457L248.421 320.457L248.106 320.453L247.791 320.446L247.475 320.435L247.158 320.42L246.84 320.402L246.522 320.38L246.203 320.354L245.884 320.324L245.564 320.291L245.244 320.254L244.923 320.213L244.602 320.169L244.281 320.12L243.959 320.068L243.637 320.012L243.315 319.952L242.993 319.889L242.67 319.821L242.347 319.75L242.025 319.674L241.702 319.595L241.379 319.512L241.057 319.425L240.734 319.335L240.411 319.24L240.089 319.141L239.767 319.039L239.445 318.932L239.124 318.822L238.802 318.708L238.481 318.589L238.161 318.467L237.841 318.341L237.521 318.211L237.203 318.077L236.884 317.939L236.566 317.797L236.249 317.651L235.933 317.501L235.617 317.347L235.303 317.19L234.989 317.028L234.675 316.862L234.363 316.693L234.052 316.519L233.742 316.342L233.433 316.16L233.124 315.975L232.818 315.786L232.512 315.592L232.207 315.395L231.904 315.194L231.602 314.99L231.301 314.781L231.002 314.568L230.704 314.352L230.408 314.131L230.113 313.907L229.82 313.679L229.528 313.447L229.238 313.211L228.949 312.972L228.663 312.729L228.378 312.481L228.095 312.231L227.814 311.976L227.534 311.718L227.257 311.456L226.981 311.19L226.708 310.92L226.437 310.647L226.167 310.37L225.9 310.09L225.635 309.806L225.373 309.518L225.112 309.227L224.854 308.932L224.598 308.634L224.345 308.332L224.094 308.027L223.845 307.718L223.599 307.405L223.356 307.09L223.115 306.771L222.877 306.448L222.641 306.122L222.408 305.793L222.178 305.46L221.951 305.125L221.726 304.785L221.504 304.443L221.285 304.098L221.07 303.749L220.857 303.397L220.647 303.042L220.44 302.684L220.236 302.323L220.035 301.959L219.838 301.592L219.644 301.221L219.452 300.848L219.265 300.472L219.08 300.094L218.899 299.712L218.721 299.328L218.546 298.94L218.375 298.55L218.208 298.158L218.044 297.762L217.883 297.364L217.726 296.964L217.573 296.561L217.423 296.155L217.277 295.747L217.135 295.336L216.996 294.923L216.861 294.508L216.73 294.09L216.603 293.67L216.479 293.248L216.36 292.824L216.244 292.397L216.132 291.968L216.024 291.537L215.92 291.105L215.821 290.67L215.725 290.233L215.633 289.794L215.545 289.354L215.462 288.911L215.383 288.467L215.307 288.021L215.236 287.573L215.17 287.124L215.107 286.673L215.049 286.221L214.995 285.767L214.945 285.311L214.9 284.855L214.859 284.396L214.822 283.937L214.79 283.476L214.762 283.014L214.739 282.551L214.72 282.086L214.706 281.621L214.696 281.155L214.69 280.687L214.689 280.219L214.693 279.75L214.701 279.28L214.714 278.809L214.731 278.337L214.753 277.865L214.78 277.392L214.811 276.919L214.847 276.445L214.887 275.971L214.932 275.496L214.982 275.021L215.037 274.545L215.096 274.07L215.16 273.594L215.229 273.118L215.302 272.641L215.38 272.165L215.463 271.689L215.551 271.213L215.643 270.737L215.74 270.261L215.842 269.786L215.949 269.31L216.061 268.835L216.177 268.361L216.298 267.887L216.424 267.413L216.555 266.94L216.69 266.468L216.831 265.996L216.976 265.525L217.126 265.055L217.281 264.585L217.44 264.117L217.604 263.649L217.774 263.183L217.948 262.717L218.126 262.253L218.31 261.79L218.498 261.328L218.691 260.867L218.889 260.408L219.092 259.95L219.299 259.494L219.511 259.039L219.728 258.586L219.95 258.134L220.177 257.684L220.408 257.236L220.643 256.789L220.884 256.345L221.129 255.902L221.379 255.461L221.634 255.022L221.893 254.586L222.157 254.151L222.425 253.719L222.699 253.289L222.976 252.861L223.259 252.436L223.546 252.013L223.837 251.592L224.133 251.174L224.433 250.759L224.738 250.346L225.048 249.936L225.362 249.529L225.68 249.124L226.003 248.723L226.33 248.324L226.662 247.928L226.997 247.536L227.338 247.146L227.682 246.759L228.031 246.376L228.384 245.996L228.741 245.619L229.103 245.245L229.468 244.875L229.838 244.508L230.212 244.145L230.59 243.785L230.972 243.429L231.358 243.077L231.748 242.728L232.142 242.383L232.54 242.042L232.942 241.705L233.348 241.371L233.758 241.042L234.171 240.716L234.588 240.395L235.009 240.077L235.434 239.764L235.862 239.455L236.294 239.15L236.73 238.85L237.169 238.553L237.612 238.262L238.058 237.974L238.508 237.691L238.961 237.413L239.417 237.139L239.877 236.87L240.34 236.605L240.806 236.345L241.276 236.09L241.748 235.84L242.224 235.594L242.703 235.353L243.185 235.118L243.67 234.887L244.158 234.661L244.649 234.44L245.142 234.224L245.639 234.013L246.138 233.808L246.64 233.608L247.145 233.412L247.652 233.223L248.162 233.038L248.674 232.859L249.189 232.685L249.707 232.516L250.226 232.353L250.748 232.196L251.273 232.044L251.799 231.897L252.328 231.756L252.859 231.621L253.392 231.491L253.927 231.367L254.464 231.248L255.003 231.136L255.544 231.029L256.086 230.928L256.631 230.833L257.177 230.743L257.725 230.659L258.274 230.582L258.825 230.51L259.377 230.444L259.931 230.384L260.486 230.33L261.043 230.283L261.601 230.241L262.16 230.205L262.72 230.175L263.281 230.152L263.843 230.134L264.407 230.123L264.971 230.118L265.536 230.119L266.102 230.126L266.668 230.14L267.235 230.16L267.803 230.186L268.372 230.218L268.941 230.256L269.51 230.301L270.08 230.352L270.65 230.41L271.22 230.474L271.791 230.544L272.361 230.62L272.932 230.703L273.503 230.792L274.074 230.888L274.644 230.99L275.215 231.098L275.785 231.213L276.355 231.334L276.924 231.462L277.493 231.596L278.062 231.737L278.63 231.883L279.197 232.037L279.764 232.196L280.33 232.363L280.895 232.535L281.459 232.714L282.023 232.9L282.585 233.092L283.147 233.29L283.707 233.495L284.266 233.706L284.824 233.923L285.38 234.147L285.935 234.378L286.489 234.615L287.041 234.858L287.592 235.107L288.141 235.363L288.688 235.625L289.233 235.894L289.777 236.169L290.319 236.45L290.859 236.738L291.396 237.031L291.932 237.332L292.466 237.638L292.997 237.951L293.526 238.269L294.053 238.594L294.577 238.926L295.099 239.263L295.619 239.607L296.135 239.956L296.65 240.312L297.161 240.674L297.67 241.042L298.176 241.416L298.679 241.796L299.179 242.182L299.676 242.575L300.169 242.973L300.66 243.376L301.148 243.786L301.632 244.202L302.113 244.623L302.591 245.051L303.065 245.484L303.535 245.923L304.002 246.367L304.466 246.818L304.926 247.273L305.382 247.735L305.834 248.202L306.282 248.675L306.727 249.153L307.167 249.636L307.603 250.125L308.036 250.62L308.464 251.119L308.888 251.625L309.307 252.135L309.723 252.65L310.134 253.171L310.54 253.697L310.942 254.228L311.34 254.764L311.733 255.305L312.121 255.852L312.505 256.403L312.884 256.958L313.258 257.519L313.627 258.085L313.991 258.655L314.35 259.23L314.705 259.81L315.054 260.394L315.398 260.982L315.737 261.576L316.071 262.173L316.399 262.775L316.722 263.382L317.04 263.992L317.352 264.607L317.659 265.226L317.961 265.849L318.256 266.477L318.547 267.108L318.831 267.743L319.11 268.382L319.383 269.025L319.651 269.672L319.913 270.322L320.168 270.976L320.418 271.634L320.662 272.295L320.9 272.959L321.132 273.627L321.358 274.299L321.578 274.973L321.791 275.651L321.999 276.332L322.2 277.016L322.395 277.703L322.584 278.393L322.766 279.086L322.942 279.782L323.112 280.48L323.275 281.181L323.431 281.885L323.582 282.591L323.725 283.3L323.863 284.011L323.993 284.725L324.117 285.441L324.234 286.159L324.345 286.879L324.449 287.601L324.546 288.325L324.637 289.051L324.72 289.779L324.797 290.509L324.867 291.241L324.93 291.974L324.987 292.708L325.036 293.444L325.079 294.182L325.114 294.921L325.143 295.661L325.164 296.402L325.179 297.144L325.186 297.888L325.187 298.632L325.18 299.377L325.167 300.123L325.146 300.87L325.118 301.617L325.083 302.365L325.041 303.113L324.992 303.862L324.936 304.611L324.872 305.361L324.801 306.11L324.724 306.86L324.638 307.609L324.546 308.359L324.447 309.108L324.34 309.857L324.226 310.606L324.105 311.355L323.976 312.103L323.841 312.85L323.698 313.597L323.548 314.343L323.391 315.089L323.226 315.833L323.054 316.577L322.875 317.319L322.689 318.06L322.495 318.801L322.294 319.54L322.086 320.277L321.871 321.013L321.649 321.748L321.419 322.481L321.182 323.212L320.938 323.942L320.687 324.67L320.429 325.395L320.163 326.119L319.891 326.841L319.611 327.56L319.324 328.278L319.03 328.993L318.729 329.705L318.42 330.415L318.105 331.123L317.783 331.828L317.453 332.53L317.117 333.229L316.774 333.926L316.423 334.619L316.066 335.31L315.702 335.997L315.331 336.681L314.953 337.362L314.568 338.039L314.176 338.713L313.778 339.384L313.372 340.051L312.96 340.714L312.542 341.373L312.116 342.029L311.684 342.68L311.245 343.328L310.8 343.972L310.348 344.611L309.89 345.246L309.425 345.877L308.953 346.504L308.476 347.126L307.991 347.744L307.501 348.357L307.004 348.965L306.501 349.568L305.991 350.167L305.475 350.761L304.954 351.35L304.426 351.934L303.892 352.512L303.352 353.086L302.806 353.654L302.254 354.217L301.696 354.775L301.132 355.327L300.562 355.873L299.987 356.414L299.406 356.95L298.819 357.479L298.227 358.003L297.629 358.52L297.025 359.032L296.416 359.538L295.802 360.038L295.182 360.531L294.557 361.019L293.927 361.5L293.291 361.975L292.651 362.443L292.005 362.905L291.354 363.36L290.698 363.809L290.038 364.251L289.372 364.687L288.702 365.115L288.027 365.537L287.347 365.952L286.662 366.36L285.973 366.761L285.28 367.155L284.582 367.541L283.88 367.921L283.173 368.293L282.463 368.658L281.748 369.016L281.029 369.366L280.305 369.709L279.578 370.044L278.847 370.372L278.112 370.692L277.374 371.005L276.632 371.31L275.886 371.607L275.136 371.896L274.383 372.178L273.627 372.451L272.867 372.717L272.104 372.975L271.338 373.224L270.568 373.466L269.796 373.699L269.021 373.925L268.242 374.142L267.461 374.351L266.677 374.552L265.891 374.744L265.102 374.928L264.31 375.104L263.516 375.271L262.719 375.43L261.921 375.58L261.12 375.722L260.317 375.855L259.511 375.98L258.704 376.096L257.895 376.204L257.084 376.302L256.272 376.392L255.458 376.474L254.642 376.546L253.825 376.61L253.006 376.665L252.186 376.712L251.365 376.749L250.542 376.777L249.719 376.797L248.894 376.808L248.069 376.81L247.243 376.802L246.416 376.786L245.588 376.761L244.76 376.727L243.932 376.684L243.103 376.632L242.273 376.571L241.444 376.501L240.614 376.421L239.784 376.333L238.955 376.236L238.125 376.129L237.296 376.014L236.467 375.889L235.638 375.755L234.81 375.612L233.982 375.46L233.155 375.299L232.329 375.129L231.504 374.95L230.679 374.761L229.855 374.564L229.033 374.357L228.212 374.141L227.392 373.916L226.573 373.682L225.756 373.439L224.94 373.187L224.126 372.926L223.313 372.655L222.503 372.376L221.694 372.088L220.887 371.79L220.082 371.484L219.28 371.168L218.479 370.844L217.681 370.51L216.886 370.168L216.092 369.817L215.302 369.457L214.514 369.087L213.728 368.709L212.946 368.322L212.167 367.927L211.39 367.522L210.617 367.109L209.847 366.687L209.08 366.256L208.316 365.817L207.556 365.368L206.799 364.912L206.046 364.446L205.297 363.972L204.552 363.49L203.81 362.999L203.072 362.499L202.338 361.991L201.609 361.475L200.884 360.95L200.163 360.417L199.446 359.875L198.734 359.326L198.026 358.768L197.323 358.202L196.624 357.627L195.931 357.045L195.242 356.455L194.558 355.857L193.879 355.25L193.206 354.636L192.537 354.014L191.874 353.385L191.216 352.747L190.563 352.102L189.916 351.449L189.275 350.789L188.639 350.121L188.009 349.445L187.385 348.762L186.766 348.072L186.154 347.374L185.547 346.67L184.947 345.957L184.353 345.238L183.765 344.512L183.183 343.779L182.608 343.039L182.04 342.292L181.477 341.538L180.922 340.777L180.373 340.01L179.831 339.236L179.295 338.455L178.767 337.668L178.245 336.875L177.731 336.075L177.223 335.269L176.723 334.457L176.23 333.639L175.744 332.814L175.266 331.984L174.795 331.148L174.331 330.306L173.875 329.458L173.427 328.604L172.986 327.745L172.553 326.88L172.128 326.01L171.71 325.135L171.3 324.254L170.899 323.368L170.505 322.477L170.119 321.581L169.742 320.68L169.372 319.774L169.011 318.864L168.658 317.948L168.314 317.028L167.978 316.104L167.65 315.175L167.33 314.242L167.02 313.304L166.717 312.363L166.424 311.417L166.139 310.467L165.863 309.513L165.595 308.556L165.336 307.595L165.086 306.63L164.845 305.662L164.613 304.69L164.39 303.715L164.176 302.737L163.971 301.755L163.775 300.771L163.588 299.783L163.41 298.793L163.241 297.8L163.082 296.804L162.931 295.806L162.79 294.805L162.659 293.802L162.536 292.796L162.423 291.789L162.32 290.779L162.226 289.767L162.141 288.754L162.066 287.738L162 286.721L161.944 285.703L161.897 284.683L161.86 283.662L161.833 282.639L161.815 281.615L161.806 280.591L161.808 279.565L161.819 278.538L161.839 277.511L161.87 276.483L161.91 275.455L161.96 274.426L162.019 273.397L162.088 272.367L162.167 271.338L162.256 270.308L162.355 269.279L162.463 268.25L162.581 267.221L162.709 266.192L162.846 265.164L162.994 264.137L163.151 263.111L163.318 262.085L163.495 261.06L163.681 260.037L163.878 259.014L164.084 257.993L164.3 256.973L164.525 255.955L164.761 254.939L165.006 253.924L165.261 252.91L165.526 251.899L165.8 250.89L166.084 249.883L166.378 248.878L166.681 247.876L166.995 246.876L167.318 245.879L167.65 244.884L167.992 243.892L168.344 242.903L168.705 241.917L169.076 240.935L169.457 239.955L169.847 238.979L170.246 238.006L170.655 237.036L171.074 236.071L171.501 235.109L171.939 234.151L172.385 233.197L172.841 232.247L173.306 231.301L173.781 230.359L174.264 229.422L174.757 228.489L175.259 227.561L175.771 226.637L176.291 225.719L176.82 224.805L177.359 223.896L177.906 222.992L178.462 222.094L179.027 221.2L179.601 220.312L180.184 219.43L180.776 218.553L181.376 217.682L181.985 216.817L182.603 215.958L183.229 215.104L183.863 214.257L184.507 213.416L185.158 212.581L185.818 211.753L186.486 210.931L187.163 210.116L187.847 209.307L188.54 208.505L189.241 207.71L189.95 206.922L190.667 206.141L191.392 205.367L192.124 204.6L192.865 203.841L193.613 203.089L194.368 202.344L195.132 201.607L195.903 200.878L196.681 200.156L197.467 199.443L198.26 198.737L199.06 198.039L199.867 197.35L200.682 196.669L201.503 195.995L202.332 195.331L203.167 194.674L204.009 194.027L204.858 193.387L205.714 192.757L206.576 192.135L207.445 191.522L208.32 190.918L209.202 190.323L210.089 189.737L210.983 189.16L211.883 188.592L212.789 188.034L213.701 187.485L214.619 186.946L215.543 186.415L216.472 185.895L217.407 185.384L218.347 184.883L219.293 184.392L220.244 183.91L221.201 183.438L222.162 182.977L223.129 182.525L224.1 182.084L225.077 181.652L226.058 181.231L227.044 180.82L228.034 180.419L229.029 180.029L230.029 179.65L231.033 179.28L232.041 178.922L233.053 178.574L234.069 178.236L235.089 177.91L236.113 177.594L237.14 177.289L238.172 176.994L239.207 176.711L240.245 176.439L241.286 176.177L242.331 175.927L243.379 175.688L244.43 175.46L245.484 175.243L246.54 175.037L247.6 174.842L248.662 174.659L249.726 174.487L250.793 174.327L251.862 174.178L252.934 174.04L254.007 173.914L255.082 173.799L256.16 173.696L257.239 173.604L258.32 173.524L259.402 173.456L260.485 173.399L261.57 173.354L262.657 173.32L263.744 173.299L264.832 173.288L265.921 173.29L267.011 173.303L268.102 173.329L269.193 173.366L270.285 173.414L271.377 173.475L272.469 173.547L273.561 173.631L274.654 173.727L275.746 173.835L276.838 173.955L277.929 174.087L279.02 174.23L280.111 174.386L281.201 174.553L282.29 174.732L283.378 174.923L284.466 175.126L285.552 175.341L286.637 175.567L287.72 175.806L288.802 176.056L289.883 176.318L290.961 176.592L292.038 176.878L293.113 177.176L294.186 177.485L295.257 177.807L296.326 178.14L297.392 178.485L298.456 178.841L299.517 179.21L300.575 179.59L301.631 179.981L302.684 180.385L303.733 180.8L304.78 181.226L305.823 181.665L306.863 182.114L307.899 182.576L308.932 183.048L309.961 183.533L310.986 184.028L312.008 184.536L313.025 185.054L314.038 185.584L315.047 186.125L316.051 186.677L317.051 187.241L318.046 187.816L319.037 188.402L320.023 188.999L321.004 189.607L321.98 190.226L322.95 190.856L323.916 191.497L324.876 192.148L325.831 192.811L326.78 193.484L327.724 194.168L328.661 194.863L329.593 195.568L330.519 196.284L331.439 197.01L332.352 197.747L333.26 198.494L334.161 199.251L335.055 200.019L335.943 200.797L336.824 201.585L337.698 202.383L338.566 203.191L339.426 204.008L340.28 204.836L341.126 205.673L341.965 206.52L342.796 207.377L343.62 208.243L344.437 209.119L345.246 210.004L346.047 210.899L346.84 211.803L347.625 212.716L348.403 213.637L349.172 214.568L349.932 215.508L350.685 216.457L351.429 217.415L352.165 218.381L352.892 219.356L353.611 220.339L354.32 221.331L355.021 222.331L355.713 223.339L356.396 224.355L357.07 225.38L357.735 226.412L358.39 227.452L359.036 228.5L359.673 229.556L360.3 230.619L360.918 231.69L361.526 232.768L362.125 233.853L362.713 234.946L363.292 236.045L363.861 237.152L364.419 238.265L364.968 239.386L365.507 240.513L366.035 241.646L366.553 242.786L367.061 243.932L367.558 245.085L368.045 246.243L368.521 247.408L368.987 248.578L369.441 249.755L369.886 250.937L370.319 252.124L370.742 253.317L371.153 254.515L371.554 255.719L371.943 256.928L372.322 258.141L372.689 259.36L373.045 260.583L373.39 261.811L373.724 263.044L374.046 264.281L374.357 265.522L374.657 266.767L374.945 268.017L375.221 269.27L375.486 270.527L375.739 271.788L375.981 273.052L376.21 274.32L376.429 275.591L376.635 276.865L376.829 278.143L377.012 279.423L377.183 280.706L377.341 281.992L377.488 283.28L377.623 284.571L377.746 285.864L377.857 287.159L377.955 288.456L378.042 289.755L378.116 291.056L378.179 292.358L378.229 293.662L378.267 294.968L378.292 296.274L378.306 297.582L378.307 298.891L378.296 300.2L378.272 301.51L378.237 302.821L378.189 304.133L378.128 305.444L378.055 306.756L377.97 308.068L377.873 309.38L377.763 310.692L377.641 312.003L377.506 313.314L377.359 314.624L377.2 315.933L377.028 317.242L376.844 318.549L376.648 319.856L376.439 321.161L376.217 322.464L375.984 323.767L375.738 325.067L375.479 326.366L375.209 327.662L374.926 328.957L374.63 330.249L374.323 331.539L374.003 332.826L373.67 334.111L373.326 335.393L372.969 336.672L372.6 337.948L372.219 339.221L371.826 340.491L371.42 341.757L371.002 343.02L370.573 344.279L370.131 345.534L369.677 346.785L369.211 348.032L368.733 349.275L368.243 350.513L367.741 351.747L367.228 352.976L366.702 354.2L366.165 355.42L365.616 356.635L365.055 357.844L364.482 359.048L363.898 360.247L363.302 361.44L362.695 362.627L362.076 363.809L361.446 364.984L360.804 366.154L360.151 367.318L359.486 368.475L358.811 369.625L358.124 370.77L357.426 371.907L356.717 373.038L355.996 374.161L355.265 375.278L354.523 376.387L353.77 377.489L353.006 378.584L352.232 379.671L351.447 380.751L350.651 381.822L349.844 382.886L349.028 383.942L348.2 384.989L347.363 386.028L346.515 387.059L345.657 388.082L344.789 389.096L343.911 390.101L343.023 391.097L342.125 392.084L341.217 393.062L340.3 394.031L339.372 394.991L338.436 395.941L337.49 396.882L336.534 397.813L335.569 398.735L334.595 399.646L333.612 400.548L332.619 401.439L331.618 402.321L330.608 403.192L329.589 404.053L328.561 404.903L327.525 405.743L326.48 406.572L325.427 407.391L324.366 408.198L323.296 408.995L322.219 409.781L321.133 410.555L320.039 411.318L318.938 412.07L317.829 412.811L316.712 413.54L315.587 414.257L314.456 414.963L313.317 415.657L312.171 416.339L311.017 417.01L309.857 417.668L308.69 418.314L307.516 418.948L306.336 419.569L305.149 420.179L303.955 420.776L302.756 421.36L301.55 421.932L300.338 422.491L299.12 423.037L297.896 423.571L296.666 424.092L295.431 424.6L294.191 425.095L292.945 425.576L291.693 426.045L290.437 426.501L289.176 426.943L287.909 427.372L286.638 427.787L285.363 428.189L284.082 428.578L282.798 428.953L281.509 429.314L280.216 429.662L278.919 429.996L277.618 430.316L276.313 430.623L275.005 430.915L273.693 431.194L272.378 431.459L271.059 431.709L269.738 431.946L268.413 432.169L267.086 432.377L265.756 432.571L264.423 432.751L263.088 432.917L261.75 433.069L260.411 433.206L259.069 433.329L257.725 433.437L256.38 433.531L255.033 433.611L253.684 433.676L252.334 433.727L250.982 433.763L249.63 433.785L248.277 433.792L246.922 433.785L245.567 433.763L244.212 433.726L242.856 433.675L241.499 433.609L240.143 433.529L238.786 433.434L237.43 433.324L236.074 433.199L234.718 433.06L233.363 432.907L232.009 432.738L230.655 432.555L229.302 432.357L227.95 432.145L226.6 431.918L225.251 431.676L223.903 431.419L222.557 431.148L221.213 430.863L219.871 430.562L218.53 430.247L217.192 429.918L215.857 429.573L214.523 429.215L213.193 428.841L211.865 428.453L210.54 428.051L209.218 427.634L207.899 427.203L206.584 426.757L205.272 426.297L203.963 425.822L202.658 425.334L201.357 424.83L200.06 424.313L198.768 423.781L197.479 423.235L196.195 422.675L194.915 422.101L193.64 421.512L192.37 420.91L191.105 420.294L189.844 419.663L188.589 419.019L187.34 418.361L186.096 417.689L184.857 417.003L183.624 416.304L182.397 415.59L181.176 414.864L179.961 414.123L178.753 413.37L177.551 412.602L176.355 411.822L175.166 411.028L173.984 410.221L172.808 409.401L171.64 408.567L170.479 407.721L169.325 406.862L168.179 405.989L167.04 405.104L165.909 404.207L164.785 403.296L163.67 402.373L162.562 401.438L161.463 400.49L160.372 399.529L159.289 398.557L158.215 397.572L157.15 396.575L156.093 395.566L155.045 394.545L154.006 393.512L152.977 392.468L151.956 391.412L150.945 390.344L149.943 389.265L148.951 388.175L147.968 387.073L146.996 385.96L146.033 384.836L145.08 383.701L144.137 382.555L143.205 381.399L142.283 380.231L141.371 379.054L140.47 377.865L139.579 376.667L138.7 375.458L137.831 374.239L136.973 373.01L136.126 371.771L135.29 370.523L134.466 369.264L133.653 367.996L132.851 366.719L132.061 365.432L131.282 364.137L130.515 362.832L129.76 361.518L129.017 360.195L128.286 358.864L127.567 357.524L126.86 356.175L126.165 354.819L125.483 353.454L124.813 352.081L124.156 350.7L123.511 349.311L122.879 347.915L122.26 346.511L121.653 345.099L121.06 343.68L120.479 342.255L119.911 340.822L119.357 339.382L118.816 337.936L118.287 336.483L117.773 335.023L117.271 333.557L116.784 332.085L116.309 330.607L115.849 329.123L115.402 327.634L114.968 326.139L114.549 324.638L114.143 323.132L113.751 321.621L113.373 320.105L113.01 318.583L112.66 317.058L112.324 315.527L112.003 313.993L111.695 312.454L111.402 310.91L111.123 309.363L110.859 307.812L110.609 306.258L110.373 304.7L110.152 303.138L109.946 301.574L109.754 300.006L109.576 298.436L109.413 296.862L109.265 295.286L109.131 293.708L109.013 292.128L108.909 290.545L108.819 288.96L108.745 287.374L108.685 285.786L108.64 284.196L108.61 282.606L108.595 281.014L108.595 279.421L108.61 277.827L108.64 276.233L108.684 274.638L108.744 273.042L108.818 271.447L108.908 269.851L109.013 268.256L109.132 266.661L109.267 265.066L109.416 263.472L109.581 261.879L109.76 260.287L109.955 258.696L110.165 257.106L110.389 255.517L110.629 253.931L110.883 252.346L111.153 250.762L111.437 249.181L111.737 247.603L112.051 246.026L112.381 244.452L112.725 242.881L113.084 241.313L113.458 239.748L113.847 238.186L114.251 236.627L114.669 235.072L115.102 233.521L115.551 231.974L116.013 230.43L116.491 228.891L116.983 227.356L117.49 225.826L118.011 224.3L118.547 222.78L119.097 221.264L119.662 219.753L120.241 218.248L120.835 216.748L121.443 215.253L122.066 213.765L122.702 212.282L123.353 210.806L124.018 209.336L124.697 207.872L125.39 206.415L126.097 204.964L126.818 203.52L127.553 202.084L128.302 200.654L129.065 199.232L129.841 197.818L130.631 196.411L131.434 195.011L132.251 193.62L133.082 192.237L133.926 190.862L134.783 189.495L135.653 188.137L136.537 186.788L137.433 185.448L138.343 184.116L139.265 182.794L140.2 181.48L141.149 180.177L142.109 178.882L143.083 177.598L144.069 176.323L145.067 175.058L146.078 173.804L147.101 172.559L148.136 171.325L149.183 170.102L150.242 168.889L151.313 167.687L152.396 166.496L153.49 165.316L154.596 164.147L155.714 162.989L156.843 161.843L157.983 160.708L159.135 159.586L160.297 158.475L161.471 157.375L162.655 156.288L163.85 155.214L165.056 154.151L166.272 153.101L167.499 152.064L168.736 151.039L169.984 150.027L171.241 149.028L172.508 148.042L173.786 147.069L175.073 146.109L176.369 145.163L177.675 144.23L178.991 143.311L180.315 142.405L181.649 141.514L182.992 140.636L184.344 139.772L185.704 138.922L187.073 138.087L188.451 137.266L189.837 136.459L191.231 135.667L192.633 134.889L194.044 134.126L195.462 133.378L196.887 132.645L198.321 131.926L199.761 131.223L201.209 130.535L202.665 129.862L204.127 129.205L205.596 128.562L207.072 127.936L208.554 127.325L210.043 126.729L211.538 126.15L213.039 125.586L214.546 125.038L216.059 124.506L217.578 123.989L219.102 123.489L220.632 123.006L222.167 122.538L223.707 122.087L225.253 121.652L226.803 121.233L228.357 120.831L229.916 120.445L231.48 120.076L233.047 119.724L234.619 119.388L236.195 119.069L237.774 118.767L239.357 118.481L240.943 118.213L242.533 117.961L244.126 117.727L245.722 117.509L247.32 117.309L248.921 117.125L250.525 116.959L252.131 116.81L253.739 116.678L255.349 116.563L256.961 116.465L258.575 116.385L260.19 116.322L261.806 116.277L263.424 116.249L265.043 116.238L266.662 116.244L268.283 116.268L269.904 116.31L271.525 116.369L273.146 116.445L274.768 116.539L276.389 116.65L278.01 116.779L279.631 116.925L281.251 117.089L282.87 117.27L284.489 117.469L286.106 117.685L287.722 117.919L289.336 118.17L290.949 118.439L292.561 118.725L294.17 119.028L295.777 119.349L297.382 119.688L298.984 120.044L300.584 120.417L302.182 120.808L303.776 121.215L305.367 121.641L306.955 122.083L308.54 122.543L310.121 123.02L311.698 123.515L313.271 124.026L314.841 124.555L316.406 125.101L317.966 125.664L319.523 126.244L321.074 126.841L322.621 127.455L324.162 128.085L325.699 128.733L327.23 129.397L328.755 130.079L330.275 130.777L331.789 131.491L333.297 132.222L334.799 132.97L336.294 133.734L337.784 134.515L339.266 135.312L340.742 136.126L342.211 136.955L343.672 137.801L345.127 138.663L346.574 139.541L348.013 140.435L349.445 141.344L350.869 142.27L352.285 143.211L353.693 144.168L355.092 145.141L356.483 146.129L357.865 147.132L359.239 148.151L360.604 149.185L361.959 150.234L363.306 151.298L364.643 152.377L365.97 153.471L367.288 154.58L368.597 155.703L369.895 156.841L371.183 157.993L372.461 159.16L373.729 160.341L374.986 161.536L376.233 162.746L377.468 163.969L378.693 165.206L379.907 166.457L381.11 167.721L382.301 168.999L383.482 170.291L384.65 171.595L385.807 172.913L386.952 174.244L388.085 175.587L389.206 176.944L390.315 178.313L391.411 179.694L392.495 181.089L393.567 182.495L394.625 183.913L395.672 185.344L396.705 186.786L397.725 188.24L398.732 189.706L399.725 191.183L400.705 192.672L401.672 194.172L402.625 195.683L403.565 197.204L404.49 198.737L405.402 200.28L406.3 201.834L407.183 203.398L408.053 204.972L408.907 206.556L409.748 208.15L410.574 209.754L411.385 211.368L412.182 212.991L412.963 214.623L413.73 216.264L414.482 217.914L415.219 219.573L415.94 221.241L416.646 222.917L417.337 224.602L418.012 226.295L418.672 227.996L419.316 229.704L419.945 231.421L420.557 233.144L421.154 234.875L421.735 236.614L422.3 238.359L422.849 240.111L423.381 241.87L423.898 243.636L424.398 245.407L424.882 247.185L425.349 248.969L425.8 250.759L426.234 252.554L426.652 254.355L427.053 256.161L427.437 257.972L427.804 259.788L428.155 261.608L428.489 263.434L428.806 265.264L429.106 267.097L429.388 268.935L429.654 270.777L429.903 272.623L430.134 274.472L430.348 276.324L430.545 278.179L430.725 280.037L430.888 281.898L431.033 283.762L431.16 285.628L431.271 287.496L431.363 289.366L431.439 291.238L431.497 293.112L431.537 294.987L431.56 296.863L431.565 298.74L431.553 300.618L431.523 302.497L431.476 304.377L431.411 306.256L431.328 308.136L431.228 310.016L431.11 311.895L430.974 313.774L430.821 315.653L430.65 317.53L430.462 319.407L430.256 321.282L430.032 323.156L429.791 325.028L429.532 326.898L429.255 328.767L428.961 330.633L428.649 332.497L428.32 334.359L427.973 336.217L427.608 338.073L427.226 339.926L426.827 341.775L426.41 343.621L425.975 345.463L425.523 347.301L425.054 349.135L424.567 350.965L424.064 352.791L423.542 354.611L423.004 356.427L422.448 358.239L421.875 360.044L421.285 361.845L420.678 363.64L420.054 365.429L419.412 367.212L418.754 368.989L418.079 370.759L417.387 372.524L416.678 374.281L415.953 376.032L415.211 377.775L414.452 379.512L413.677 381.241L412.885 382.962L412.076 384.675L411.252 386.381L410.411 388.078L409.553 389.768L408.68 391.448L407.79 393.12L406.885 394.783L405.963 396.437L405.026 398.082L404.073 399.718L403.104 401.344L402.12 402.96L401.12 404.566L400.104 406.162L399.073 407.748L398.027 409.324L396.966 410.889L395.89 412.443L394.798 413.986L393.692 415.519L392.571 417.04L391.435 418.549L390.285 420.047L389.12 421.534L387.941 423.008L386.747 424.471L385.54 425.921L384.318 427.359L383.082 428.784L381.833 430.196L380.569 431.596L379.292 432.983L378.002 434.356L376.698 435.717L375.381 437.064L374.051 438.397L372.707 439.716L371.351 441.022L369.982 442.314L368.601 443.591L367.207 444.854L365.8 446.103L364.381 447.337L362.95 448.556L361.507 449.761L360.052 450.95L358.586 452.125L357.108 453.284L355.618 454.428L354.117 455.556L352.605 456.668L351.082 457.765L349.548 458.846L348.003 459.91L346.448 460.959L344.882 461.991L343.306 463.007L341.72 464.007L340.124 464.989L338.518 465.955L336.902 466.905L335.276 467.837L333.642 468.752L331.998 469.65L330.345 470.53L328.683 471.394L327.012 472.239L325.333 473.067L323.645 473.878L321.949 474.671L320.245 475.445L318.533 476.202L316.813 476.941L315.086 477.661L313.351 478.363L311.609 479.047L309.859 479.713L308.103 480.359L306.34 480.988L304.571 481.597L302.795 482.188L301.012 482.76L299.224 483.313L297.43 483.847L295.63 484.362L293.824 484.858L292.014 485.335L290.198 485.793L288.376 486.231L286.551 486.649L284.72 487.049L282.885 487.429L281.046 487.789L279.202 488.129L277.355 488.45L275.504 488.752L273.649 489.033L271.791 489.295L269.93 489.537L268.066 489.759L266.199 489.96L264.329 490.143L262.457 490.305L260.582 490.446L258.706 490.568L256.827 490.67L254.947 490.752L253.065 490.813L251.183 490.854L249.298 490.875L247.413 490.876L245.528 490.857L243.641 490.817L241.754 490.757L239.867 490.677L237.98 490.576L236.094 490.456L234.207 490.314L232.322 490.153L230.436 489.971L228.552 489.769L226.669 489.546L224.788 489.304L222.908 489.04L221.029 488.757L219.153 488.453L217.278 488.129L215.406 487.785L213.537 487.421L211.67 487.036L209.805 486.631L207.944 486.206L206.087 485.761L204.232 485.295L202.381 484.81L200.535 484.304L198.692 483.779L196.853 483.233L195.018 482.668L193.189 482.082L191.364 481.477L189.543 480.851L187.728 480.206L185.919 479.542L184.115 478.857L182.316 478.153L180.524 477.429L178.737 476.686L176.957 475.923L175.183 475.141L173.416 474.34L171.655 473.519L169.902 472.679L168.156 471.82L166.417 470.941L164.685 470.044L162.962 469.128L161.246 468.192L159.538 467.239L157.839 466.266L156.148 465.275L154.466 464.265L152.792 463.236L151.128 462.19L149.472 461.125L147.826 460.042L146.189 458.94L144.562 457.821L142.945 456.684L141.338 455.529L139.741 454.356L138.154 453.166L136.578 451.958L135.013 450.733L133.458 449.49L131.915 448.231L130.383 446.954L128.862 445.66L127.352 444.35L125.854 443.022L124.368 441.679L122.894 440.318L121.433 438.942L119.983 437.549L118.546 436.14L117.122 434.715L115.71 433.274L114.311 431.817L112.926 430.345L111.553 428.857L110.194 427.355L108.849 425.836L107.517 424.303L106.199 422.755L104.895 421.193L103.605 419.615L102.33 418.023L101.069 416.417L99.822 414.797L98.59 413.163L97.3729 411.514L96.1707 409.853L94.9836 408.177L93.8117 406.488L92.6551 404.786L91.514 403.071L90.3886 401.343L89.2788 399.603L88.185 397.849L87.1071 396.083L86.0453 394.305L84.9997 392.515L83.9705 390.713L82.9578 388.9L81.9616 387.074L80.9821 385.238L80.0194 383.39L79.0737 381.531L78.145 379.661L77.2334 377.78L76.339 375.889L75.462 373.988L74.6025 372.077L73.7605 370.155L72.9362 368.224L72.1296 366.283L71.3408 364.333L70.57 362.374L69.8173 360.405L69.0826 358.428L68.3662 356.442L67.6681 354.448L66.9883 352.445L66.3271 350.435L65.6844 348.416L65.0603 346.39L64.455 344.357L63.8684 342.316L63.3007 340.268L62.7519 338.213L62.2222 336.152L61.7116 334.084L61.22 332.01L60.7477 329.929L60.2947 327.843L59.8611 325.752L59.4468 323.655L59.052 321.552L58.6767 319.445L58.3209 317.332L57.9848 315.216L57.6684 313.094L57.3717 310.969L57.0947 308.84L56.8376 306.706L56.6003 304.57L56.3829 302.43L56.1854 300.286L56.008 298.14L55.8505 295.991L55.713 293.84L55.5957 291.687L55.4984 289.531L55.4212 287.373L55.3642 285.214L55.3274 283.054L55.3108 280.892L55.3143 278.729L55.3381 276.566L55.3822 274.402L55.4465 272.237L55.531 270.073L55.6359 267.909L55.761 265.745L55.9064 263.581L56.0721 261.418L56.258 259.257L56.4643 257.096L56.6908 254.937L56.9377 252.78L57.2047 250.624L57.4921 248.47L57.7997 246.319L58.1275 244.17L58.4755 242.024L58.8437 239.881L59.2321 237.742L59.6407 235.605L60.0694 233.472L60.5182 231.343L60.9871 229.218L61.476 227.097L61.9849 224.981L62.5138 222.869L63.0626 220.763L63.6314 218.661L64.22 216.565L64.8284 214.474L65.4566 212.389L66.1046 210.31L66.7722 208.238L67.4594 206.171L68.1662 204.112L68.8925 202.059L69.6383 200.013L70.4035 197.974L71.188 195.943L71.9918 193.92L72.8148 191.905L73.657 189.897L74.5183 187.898L75.3985 185.908L76.2977 183.926L77.2157 181.953L78.1526 179.989L79.1081 178.035L80.0822 176.09L81.0749 174.155L82.0861 172.23L83.1156 170.315L84.1634 168.41L85.2294 166.516L86.3134 164.633L87.4155 162.761L88.5355 160.9L89.6733 159.05L90.8288 157.212L92.0019 155.385L93.1925 153.571L94.4005 151.769L95.6258 149.978L96.8683 148.201L98.1278 146.436L99.4043 144.684L100.698 142.945L102.008 141.22L103.334 139.507L104.678 137.809L106.037 136.124L107.413 134.453L108.805 132.797L110.213 131.155L111.636 129.527L113.076 127.914L114.531 126.316L116.001 124.733L117.487 123.165L118.988 121.613L120.504 120.076L122.035 118.555L123.581 117.05L125.141 115.56L126.716 114.088L128.305 112.631L129.909 111.191L131.526 109.768L133.157 108.361L134.803 106.972L136.461 105.6L138.133 104.245L139.818 102.907L141.517 101.588L143.228 100.285L144.952 99.0014L146.689 97.7353L148.438 96.4874L150.2 95.2579L151.973 94.0468L153.759 92.8544L155.556 91.6807L157.365 90.5259L159.185 89.3901L161.017 88.2735L162.86 87.1761L164.713 86.0982L166.578 85.0397L168.453 84.0009L170.338 82.9819L172.233 81.9828L174.139 81.0036L176.054 80.0446L177.979 79.1058L179.914 78.1873L181.857 77.2893L183.81 76.4119L185.772 75.5551L187.742 74.719L189.721 73.9039L191.708 73.1097L193.703 72.3365L195.707 71.5845L197.718 70.8538L199.736 70.1443L201.762 69.4564L203.795 68.7899L205.835 68.145L207.881 67.5218L209.934 66.9203L211.994 66.3407L214.06 65.783L216.131 65.2473L218.209 64.7337L220.291 64.2421L222.38 63.7728L224.473 63.3257L226.571 62.9009L228.674 62.4986L230.781 62.1186L232.893 61.7612L235.009 61.4263L237.128 61.114L239.252 60.8243L241.378 60.5574L243.508 60.3131L245.641 60.0917L247.777 59.8931L249.915 59.7174L252.056 59.5645L254.199 59.4346L256.344 59.3277L258.49 59.2437L260.638 59.1828L262.788 59.1449L264.938 59.1301L267.09 59.1383L269.242 59.1697L271.394 59.2241L273.547 59.3017L275.7 59.4025L277.852 59.5264L280.005 59.6734L282.156 59.8436L284.307 60.037L286.456 60.2535L288.605 60.4932L290.751 60.756L292.896 61.0419L295.04 61.351L297.181 61.6832L299.319 62.0385L301.455 62.4169L303.588 62.8183L305.718 63.2428L307.845 63.6903L309.969 64.1608L312.089 64.6542L314.205 65.1706L316.316 65.7099L318.424 66.272L320.527 66.8569L322.625 67.4647L324.718 68.0951L326.806 68.7483L328.889 69.424L330.966 70.1224L333.037 70.8433L335.102 71.5867L337.161 72.3525L339.214 73.1407L341.259 73.9511L343.298 74.7839L345.33 75.6387L347.355 76.5157L349.372 77.4148L351.381 78.3357L353.382 79.2786L355.375 80.2433L357.36 81.2297L359.336 82.2377L361.304 83.2673L363.263 84.3183L365.212 85.3908L367.152 86.4845L369.082 87.5994L371.003 88.7355L372.914 89.8925L374.814 91.0705L376.705 92.2692L378.584 93.4886L380.453 94.7286L382.311 95.9891L384.158 97.27L385.993 98.5711L387.817 99.8924L389.629 101.234L391.429 102.595L393.217 103.976L394.992 105.376L396.756 106.797L398.506 108.236L400.244 109.695L401.968 111.173L403.68 112.67L405.378 114.186L407.062 115.72L408.732 117.274L410.389 118.845L412.031 120.435L413.659 122.043L415.273 123.67L416.872 125.314L418.456 126.975L420.025 128.654L421.579 130.351L423.117 132.065L424.641 133.796L426.148 135.544L427.639 137.309L429.115 139.09L430.574 140.888L432.017 142.702L433.444 144.532L434.854 146.378L436.247 148.239L437.623 150.117L438.982 152.009L440.324 153.917L441.648 155.84L442.955 157.778L444.245 159.731L445.516 161.698L446.769 163.679L448.005 165.674L449.222 167.683L450.42 169.706L451.601 171.743L452.762 173.793L453.905 175.856L455.029 177.932L456.134 180.021L457.219 182.122L458.285 184.236L459.332 186.361L460.36 188.499L461.368 190.648L462.355 192.809L463.324 194.982L464.272 197.165L465.2 199.359L466.108 201.564L466.995 203.78L467.862 206.005L468.709 208.241L469.535 210.486L470.34 212.741L471.124 215.006L471.888 217.28L472.63 219.562L473.351 221.853L474.052 224.153L474.73 226.461L475.388 228.777L476.024 231.101L476.639 233.433L477.232 235.772L477.803 238.118L478.353 240.471L478.88 242.83L479.386 245.196L479.87 247.568L480.332 249.946L480.772 252.33L481.19 254.719L481.585 257.114L481.958 259.514L482.309 261.918L482.638 264.327L482.944 266.74L483.228 269.158L483.489 271.579L483.727 274.004L483.943 276.432L484.137 278.863L484.307 281.297L484.456 283.733L484.581 286.172L484.683 288.614L484.763 291.057L484.82 293.501L484.854 295.947L484.865 298.395L484.854 300.843L484.819 303.292L484.762 305.741L484.682 308.19L484.578 310.64L484.452 313.089L484.303 315.537L484.131 317.985L483.936 320.431L483.718 322.876L483.477 325.32L483.213 327.762L482.927 330.202L482.617 332.639L482.285 335.074L481.929 337.507L481.551 339.936L481.15 342.362L480.726 344.784L480.28 347.202L479.81 349.617L479.318 352.027L478.804 354.433L478.266 356.834L477.706 359.23L477.124 361.621L476.519 364.006L475.891 366.386L475.241 368.759L474.568 371.126L473.874 373.487L473.157 375.841L472.417 378.188L471.656 380.528L470.872 382.861L470.066 385.186L469.239 387.503L468.389 389.812L467.518 392.112L466.625 394.404L465.71 396.687L464.773 398.961L463.815 401.225L462.836 403.48L461.835 405.725L460.812 407.96L459.769 410.185L458.704 412.399L457.619 414.603L456.512 416.796L455.385 418.977L454.237 421.147L453.068 423.306L451.879 425.452L450.669 427.587L449.439 429.709L448.188 431.818L446.918 433.915L445.627 435.999L444.317 438.07L442.987 440.127L441.637 442.17L440.268 444.2L438.879 446.216L437.471 448.217L436.044 450.204L434.598 452.176L433.133 454.134L431.65 456.076L430.147 458.003L428.626 459.914L427.087 461.81L425.53 463.689L423.954 465.553L422.361 467.4L420.75 469.231L419.121 471.045L417.475 472.842L415.812 474.622L414.131 476.385L412.433 478.13L410.719 479.857L408.988 481.567L407.24 483.258L405.476 484.932L403.696 486.587L401.899 488.223L400.087 489.841L398.26 491.439L396.416 493.019L394.558 494.579L392.684 496.12L390.795 497.641L388.892 499.142L386.973 500.623L385.041 502.084L383.094 503.525L381.133 504.946L379.158 506.346L377.17 507.725L375.168 509.083L373.152 510.42L371.124 511.736L369.082 513.03L367.028 514.303L364.962 515.555L362.883 516.784L360.792 517.992L358.689 519.177L356.574 520.34L354.448 521.481L352.31 522.6L350.161 523.696L348.002 524.769L345.832 525.819L343.651 526.847L341.46 527.851L339.259 528.832L337.048 529.79L334.827 530.724L332.597 531.635L330.358 532.522L328.11 533.385L325.853 534.224L323.588 535.04L321.314 535.831L319.032 536.599L316.742 537.342L314.445 538.06L312.14 538.754L309.828 539.424L307.509 540.069L305.184 540.689L302.851 541.285L300.513 541.856L298.169 542.402L295.818 542.922L293.462 543.418L291.101 543.889L288.735 544.334L286.364 544.754L283.988 545.149L281.607 545.519L279.223 545.863L276.835 546.181L274.443 546.474L272.047 546.742L269.648 546.983L267.247 547.2L264.842 547.39L262.435 547.555L260.026 547.693L257.614 547.807L255.201 547.894L252.787 547.955L250.371 547.991L247.954 548L245.536 547.984L243.118 547.941L240.699 547.873L238.28 547.779L235.862 547.658L233.443 547.512L231.026 547.34L228.609 547.141L226.194 546.917L223.779 546.667L221.367 546.39L218.956 546.088L216.547 545.76L214.141 545.406L211.738 545.026L209.337 544.62L206.939 544.188L204.544 543.73L202.154 543.246L199.766 542.737L197.383 542.202L195.005 541.641L192.63 541.054L190.261 540.442L187.897 539.804L185.537 539.141L183.184 538.452L180.836 537.737L178.494 536.997L176.158 536.232L173.829 535.442L171.506 534.626L169.191 533.785L166.882 532.919L164.581 532.028L162.288 531.112L160.002 530.171L157.725 529.206L155.456 528.215L153.195 527.2L150.944 526.161L148.701 525.096L146.468 524.008L144.244 522.895L142.03 521.758L139.826 520.597L137.632 519.412L135.448 518.203L133.275 516.97L131.113 515.714L128.963 514.434L126.823 513.131L124.695 511.804L122.579 510.454L120.475 509.081L118.383 507.685L116.303 506.266L114.236 504.824L112.182 503.359L110.141 501.873L108.114 500.364L106.1 498.832L104.099 497.279L102.113 495.703L100.14 494.106L98.1824 492.488L96.2389 490.847L94.3102 489.186L92.3965 487.503L90.498 485.799L88.6148 484.075L86.7472 482.329L84.8953 480.563L83.0594 478.777L81.2397 476.97L79.4363 475.144L77.6495 473.297L75.8794 471.431L74.1262 469.545L72.3902 467.64L70.6714 465.716L68.9702 463.773L67.2865 461.81L65.6208 459.83L63.9731 457.83L62.3435 455.813L60.7324 453.777L59.1398 451.724L57.5659 449.653L56.011 447.564L54.4751 445.458L52.9584 443.335L51.4612 441.195L49.9835 439.039L48.5255 436.866L47.0874 434.676L45.6694 432.471L44.2716 430.25L42.8941 428.013L41.5371 425.76L40.2008 423.493L38.8853 421.21L37.5908 418.913L36.3173 416.601L35.0651 414.275L33.8342 411.935L32.6249 409.58L31.4372 407.213L30.2714 404.831L29.1274 402.437L28.0055 400.029L26.9057 397.609L25.8283 395.176L24.7733 392.731L23.7408 390.275L22.731 387.806L21.744 385.325L20.7799 382.834L19.8388 380.331L18.9208 377.818L18.026 375.294L17.1546 372.759L16.3066 370.215L15.4821 367.66L14.6813 365.097L13.9042 362.523L13.1509 359.941L12.4215 357.35L11.7162 354.75L11.0349 352.142L10.3778 349.526L9.74503 346.902L9.13655 344.271L8.55249 341.632L7.99292 338.987L7.45792 336.334L6.94755 333.675L6.46189 331.01L6.001 328.339L5.56493 325.662L5.15376 322.98L4.76754 320.292L4.40632 317.6L4.07017 314.903L3.75912 312.202L3.47323 309.496L3.21254 306.787L2.9771 304.074L2.76694 301.358L2.58211 298.639L2.42263 295.917L2.28855 293.192L2.17989 290.466L2.09668 287.737L2.03895 285.007L2.00672 282.275L2 279.542L2.01882 276.809L2.06319 274.074L2.13313 271.34L2.22864 268.605L2.34973 265.871L2.49641 263.137L2.66868 260.405L2.86653 257.673L3.08997 254.942L3.33899 252.213L3.61359 249.486L3.91374 246.762L4.23944 244.039L4.59067 241.32L4.96742 238.603L5.36966 235.89L5.79736 233.18L6.25051 230.474L6.72908 227.772L7.23303 225.075L7.76232 222.382L8.31693 219.694L8.89682 217.012L9.50193 214.334L10.1322 211.663L10.7877 208.997L11.4682 206.338L12.1738 203.686L12.9044 201.04L13.6598 198.401L14.4402 195.77L15.2454 193.146L16.0753 190.531L16.9299 187.923L17.8091 185.324L18.7128 182.733L19.641 180.152L20.5935 177.58L21.5704 175.017L22.5715 172.464L23.5967 169.921L24.646 167.389L25.7192 164.867L26.8163 162.355L27.9372 159.855L29.0817 157.366L30.2498 154.889L31.4414 152.424L32.6564 149.971L33.8946 147.53L35.156 145.101L36.4404 142.686L37.7478 140.284L39.0779 137.895L40.4308 135.519L41.8062 133.158L43.2041 130.81L44.6243 128.477L46.0666 126.159L47.5311 123.855L49.0175 121.567L50.5257 119.294L52.0555 117.036L53.6068 114.794L55.1796 112.568L56.7735 110.359L58.3886 108.166L60.0246 105.989L61.6814 103.83L63.3588 101.688L65.0567 99.5628L66.7749 97.4557L68.5133 95.3663L70.2716 93.2951L72.0499 91.2422L73.8477 89.2078L75.6651 87.1921L77.5019 85.1954L79.3578 83.2178L81.2326 81.2596L83.1263 79.321L85.0386 77.4022L86.9694 75.5034L88.9185 73.6248L90.8856 71.7665L92.8707 69.9289L94.8734 68.1121L96.8937 66.3163L98.9313 64.5416L100.986 62.7883L103.058 61.0566L105.146 59.3467L107.251 57.6587L109.373 55.9928L111.51 54.3493L113.663 52.7282L115.833 51.1298L118.017 49.5542L120.217 48.0017L122.432 46.4723L124.662 44.9663L126.907 43.4838L129.166 42.025L131.44 40.59L133.727 39.1791L136.028 37.7923L138.343 36.4298L140.671 35.0918L143.013 33.7784L145.367 32.4897L147.734 31.226L150.113 29.9874L152.505 28.7739L154.908 27.5858L157.323 26.4231L159.75 25.286L162.188 24.1747L164.637 23.0892L167.097 22.0298L169.568 20.9964L172.049 19.9893L174.54 19.0085L177.04 18.0541L179.551 17.1264L182.07 16.2253L184.599 15.351L187.137 14.5037L189.683 13.6833L192.238 12.89L194.8 12.1239L197.371 11.3851L199.949 10.6737L202.534 9.9898L205.127 9.33343L207.726 8.7047L210.332 8.1037L212.944 7.53049L215.563 6.98516L218.187 6.46778L220.817 5.97841L223.452 5.51713L226.091 5.084L228.736 4.67908L231.385 4.30243L234.039 3.95411L236.696 3.63416L239.357 3.34264L242.022 3.0796L244.689 2.84508L247.36 2.63912L250.033 2.46175L252.709 2.31303L255.387 2.19297L258.066 2.10162L260.747 2.03898L263.43 2.00511L266.113 2L268.797 2.02369L271.482 2.07618L274.167 2.15749L276.852 2.26763L279.536 2.40662L282.22 2.57444L284.903 2.7711L287.585 2.99661L290.266 3.25095L292.945 3.53413L295.622 3.84612L298.297 4.18692L300.969 4.55651L303.639 4.95487L306.305 5.38198L308.968 5.83781L311.628 6.32234L314.284 6.83554L316.936 7.37737L319.583 7.94779L322.226 8.54677L324.864 9.17427L327.497 9.83024L330.124 10.5146L332.746 11.2274L335.361 11.9685L337.97 12.7378L340.573 13.5353L343.17 14.361L345.759 15.2147L348.34 16.0965L350.915 17.0062L353.481 17.9437L356.039 18.909L358.589 19.9021L361.131 20.9227L363.663 21.9709L366.187 23.0466L368.701 24.1495L371.205 25.2798L373.699 26.4372L376.184 27.6217L378.657 28.8332L381.121 30.0715L383.573 31.3365L386.014 32.6283L388.444 33.9465L390.862 35.2912L393.268 36.6621L395.662 38.0592L398.043 39.4824L400.412 40.9315L402.767 42.4064L405.11 43.9069L407.439 45.433L409.755 46.9845L412.057 48.5612L414.344 50.163L416.617 51.7898L418.876 53.4414L421.12 55.1177L423.349 56.8184L425.562 58.5436L427.76 60.2929L429.942 62.0662L432.108 63.8635L434.258 65.6844L436.391 67.5289L438.508 69.3967L440.607 71.2878L442.69 73.2018L444.755 75.1387L446.803 77.0983L448.833 79.0803L450.845 81.0847L452.839 83.1111L454.814 85.1594L456.771 87.2295L458.709 89.3211L460.628 91.4341L462.527 93.5681L464.407 95.7231L466.268 97.8989L468.108 100.095L469.929 102.312L471.729 104.548L473.509 106.805L475.269 109.081L477.007 111.377L478.724 113.692L480.421 116.026L482.096 118.379L483.749 120.75L485.381 123.14L486.99 125.548L488.578 127.973L490.143 130.417L491.686 132.877L493.207 135.355L494.704 137.85L496.179 140.362L497.631 142.89L499.059 145.434L500.464 147.995L501.845 150.571L503.203 153.162L504.537 155.769L505.846 158.391L507.132 161.027L508.393 163.678L509.63 166.343L510.842 169.022L512.03 171.715L513.193 174.421L514.33 177.14L515.443 179.873L516.53 182.618L517.592 185.375L518.629 188.144L519.64 190.925L520.625 193.718L521.584 196.522L522.517 199.337L523.425 202.163L524.306 204.999L525.161 207.845L525.989 210.702L526.791 213.567L527.567 216.443L528.315 219.327L529.037 222.22L529.732 225.121L530.401 228.031L531.042 230.949L531.656 233.874L532.243 236.806L532.802 239.746L533.335 242.692L533.84 245.645L534.317 248.604L534.767 251.569L535.19 254.539L535.584 257.515L535.951 260.496L536.291 263.481L536.602 266.471L536.886 269.465L537.141 272.462L537.369 275.463L537.569 278.468L537.741 281.475L537.884 284.485L538 287.497L271.316 289.283Z" stroke="#00715D" stroke-width="4"/>
</svg>
