<svg width="129" height="454" viewBox="0 0 129 454" fill="none" xmlns="http://www.w3.org/2000/svg">
<path opacity="0.12" d="M261.421 272.134L261.265 272.22L261.107 272.303L260.947 272.386L260.785 272.466L260.621 272.545L260.456 272.623L260.289 272.699L260.121 272.773L259.95 272.846L259.778 272.917L259.604 272.986L259.429 273.054L259.252 273.12L259.074 273.184L258.893 273.246L258.712 273.307L258.528 273.366L258.344 273.422L258.157 273.477L257.97 273.53L257.781 273.582L257.59 273.631L257.398 273.678L257.205 273.723L257.01 273.767L256.814 273.808L256.616 273.847L256.418 273.884L256.218 273.919L256.017 273.952L255.814 273.983L255.611 274.012L255.406 274.038L255.2 274.062L254.993 274.084L254.785 274.104L254.576 274.122L254.366 274.137L254.155 274.15L253.943 274.161L253.73 274.17L253.516 274.176L253.301 274.18L253.085 274.181L252.869 274.18L252.651 274.177L252.433 274.171L252.215 274.163L251.995 274.152L251.775 274.139L251.554 274.124L251.333 274.106L251.111 274.086L250.888 274.063L250.665 274.037L250.441 274.009L250.217 273.979L249.993 273.946L249.768 273.91L249.543 273.872L249.317 273.831L249.091 273.788L248.865 273.742L248.639 273.694L248.412 273.642L248.185 273.589L247.959 273.532L247.732 273.473L247.505 273.412L247.278 273.347L247.051 273.28L246.824 273.211L246.597 273.138L246.37 273.063L246.143 272.985L245.917 272.905L245.69 272.822L245.464 272.736L245.239 272.648L245.013 272.556L244.788 272.463L244.564 272.366L244.339 272.267L244.115 272.165L243.892 272.06L243.669 271.952L243.447 271.842L243.226 271.729L243.005 271.614L242.785 271.495L242.565 271.374L242.346 271.25L242.128 271.124L241.911 270.995L241.695 270.863L241.479 270.728L241.265 270.591L241.051 270.451L240.839 270.308L240.627 270.163L240.417 270.015L240.208 269.864L240 269.711L239.793 269.555L239.587 269.396L239.383 269.235L239.179 269.071L238.978 268.904L238.777 268.735L238.578 268.563L238.381 268.388L238.184 268.211L237.99 268.031L237.797 267.849L237.605 267.664L237.415 267.477L237.227 267.287L237.041 267.095L236.856 266.9L236.673 266.702L236.492 266.502L236.312 266.3L236.135 266.095L235.959 265.888L235.785 265.678L235.613 265.466L235.444 265.251L235.276 265.034L235.11 264.815L234.947 264.593L234.786 264.369L234.626 264.143L234.469 263.914L234.315 263.683L234.162 263.45L234.012 263.215L233.864 262.977L233.719 262.737L233.576 262.495L233.435 262.251L233.297 262.005L233.161 261.756L233.028 261.506L232.898 261.253L232.77 260.998L232.644 260.742L232.522 260.483L232.402 260.222L232.284 259.96L232.17 259.695L232.058 259.429L231.949 259.16L231.843 258.89L231.74 258.618L231.64 258.344L231.542 258.069L231.448 257.791L231.356 257.512L231.268 257.232L231.182 256.949L231.1 256.665L231.02 256.379L230.944 256.092L230.871 255.803L230.801 255.513L230.735 255.221L230.671 254.928L230.611 254.633L230.554 254.337L230.5 254.04L230.45 253.741L230.402 253.441L230.359 253.14L230.318 252.837L230.281 252.534L230.248 252.229L230.218 251.923L230.191 251.615L230.168 251.307L230.148 250.998L230.132 250.688L230.119 250.376L230.11 250.064L230.105 249.751L230.103 249.437L230.105 249.123L230.11 248.807L230.119 248.491L230.132 248.174L230.148 247.856L230.168 247.538L230.192 247.219L230.219 246.9L230.251 246.58L230.286 246.259L230.324 245.938L230.367 245.617L230.413 245.295L230.463 244.973L230.517 244.651L230.575 244.328L230.637 244.006L230.702 243.683L230.771 243.36L230.844 243.036L230.922 242.713L231.003 242.39L231.087 242.067L231.176 241.743L231.269 241.42L231.365 241.097L231.466 240.775L231.57 240.452L231.679 240.13L231.791 239.808L231.907 239.486L232.027 239.165L232.151 238.844L232.28 238.524L232.412 238.204L232.548 237.885L232.687 237.566L232.831 237.248L232.979 236.931L233.131 236.614L233.287 236.299L233.446 235.983L233.61 235.669L233.778 235.356L233.949 235.044L234.125 234.732L234.304 234.422L234.488 234.113L234.675 233.805L234.866 233.498L235.061 233.192L235.26 232.887L235.463 232.584L235.67 232.282L235.881 231.981L236.095 231.682L236.314 231.384L236.536 231.088L236.762 230.793L236.992 230.5L237.226 230.209L237.464 229.919L237.706 229.631L237.951 229.344L238.2 229.059L238.453 228.777L238.709 228.496L238.97 228.217L239.234 227.939L239.501 227.664L239.773 227.391L240.048 227.12L240.327 226.851L240.609 226.585L240.895 226.32L241.184 226.058L241.478 225.798L241.774 225.54L242.075 225.285L242.378 225.032L242.686 224.781L242.996 224.533L243.311 224.288L243.628 224.045L243.949 223.805L244.274 223.567L244.601 223.332L244.932 223.1L245.267 222.87L245.604 222.644L245.945 222.42L246.289 222.199L246.637 221.981L246.987 221.765L247.341 221.553L247.698 221.344L248.057 221.138L248.42 220.935L248.786 220.735L249.155 220.539L249.527 220.345L249.902 220.155L250.279 219.968L250.66 219.784L251.043 219.604L251.429 219.427L251.818 219.253L252.21 219.083L252.604 218.917L253.001 218.754L253.401 218.594L253.803 218.438L254.207 218.286L254.615 218.137L255.024 217.992L255.436 217.851L255.851 217.713L256.268 217.58L256.687 217.45L257.108 217.324L257.532 217.201L257.958 217.083L258.386 216.968L258.816 216.858L259.248 216.751L259.682 216.649L260.119 216.55L260.557 216.456L260.997 216.365L261.439 216.279L261.882 216.197L262.328 216.119L262.775 216.045L263.224 215.975L263.674 215.91L264.126 215.849L264.58 215.792L265.035 215.739L265.492 215.691L265.95 215.647L266.409 215.608L266.869 215.572L267.331 215.542L267.794 215.515L268.258 215.494L268.724 215.476L269.19 215.463L269.657 215.455L270.126 215.451L270.595 215.452L271.065 215.457L271.536 215.467L272.008 215.481L272.48 215.5L272.953 215.523L273.426 215.552L273.901 215.584L274.375 215.622L274.85 215.664L275.326 215.711L275.801 215.762L276.278 215.819L276.754 215.88L277.23 215.945L277.707 216.016L278.184 216.091L278.66 216.171L279.137 216.255L279.614 216.345L280.09 216.439L280.566 216.538L281.042 216.642L281.518 216.75L281.993 216.863L282.468 216.982L282.942 217.104L283.416 217.232L283.89 217.365L284.362 217.502L284.834 217.644L285.305 217.791L285.776 217.943L286.245 218.1L286.714 218.261L287.181 218.427L287.648 218.598L288.113 218.774L288.577 218.955L289.041 219.14L289.502 219.33L289.963 219.525L290.422 219.725L290.88 219.929L291.336 220.139L291.791 220.353L292.244 220.572L292.695 220.795L293.145 221.023L293.593 221.256L294.039 221.494L294.483 221.737L294.926 221.984L295.366 222.235L295.804 222.492L296.24 222.753L296.674 223.019L297.106 223.289L297.535 223.564L297.963 223.844L298.387 224.128L298.81 224.417L299.23 224.71L299.647 225.008L300.062 225.31L300.474 225.617L300.883 225.929L301.289 226.244L301.693 226.564L302.094 226.889L302.492 227.218L302.887 227.551L303.278 227.889L303.667 228.231L304.053 228.578L304.435 228.928L304.814 229.283L305.19 229.642L305.563 230.005L305.932 230.373L306.297 230.744L306.659 231.12L307.018 231.5L307.373 231.884L307.724 232.272L308.072 232.664L308.415 233.059L308.755 233.459L309.091 233.863L309.423 234.27L309.751 234.682L310.076 235.097L310.396 235.516L310.712 235.939L311.023 236.365L311.331 236.795L311.634 237.229L311.933 237.666L312.228 238.107L312.518 238.551L312.804 238.999L313.085 239.45L313.362 239.905L313.634 240.363L313.901 240.824L314.164 241.289L314.422 241.757L314.676 242.228L314.924 242.702L315.168 243.18L315.407 243.66L315.641 244.143L315.87 244.63L316.094 245.119L316.313 245.612L316.527 246.107L316.735 246.605L316.939 247.105L317.137 247.609L317.33 248.115L317.518 248.623L317.701 249.135L317.878 249.649L318.05 250.165L318.216 250.683L318.377 251.205L318.532 251.728L318.682 252.254L318.827 252.781L318.965 253.311L319.098 253.844L319.226 254.378L319.348 254.914L319.464 255.452L319.574 255.992L319.679 256.534L319.777 257.078L319.87 257.624L319.957 258.171L320.039 258.72L320.114 259.27L320.183 259.822L320.247 260.376L320.304 260.93L320.355 261.487L320.401 262.044L320.44 262.603L320.473 263.163L320.5 263.724L320.521 264.286L320.536 264.849L320.545 265.413L320.547 265.978L320.544 266.544L320.534 267.111L320.518 267.678L320.495 268.246L320.467 268.815L320.432 269.384L320.39 269.954L320.343 270.524L320.289 271.094L320.229 271.665L320.162 272.236L320.089 272.807L320.01 273.378L319.925 273.95L319.833 274.521L319.734 275.092L319.63 275.663L319.518 276.234L319.401 276.805L319.277 277.375L319.146 277.945L319.009 278.514L318.866 279.083L318.716 279.652L318.56 280.22L318.398 280.787L318.229 281.353L318.053 281.918L317.871 282.483L317.683 283.046L317.488 283.609L317.287 284.171L317.079 284.731L316.865 285.29L316.645 285.848L316.418 286.405L316.185 286.96L315.945 287.513L315.699 288.066L315.447 288.616L315.188 289.165L314.923 289.712L314.652 290.258L314.374 290.801L314.09 291.343L313.799 291.882L313.503 292.42L313.2 292.956L312.89 293.489L312.575 294.02L312.253 294.549L311.925 295.075L311.591 295.599L311.251 296.121L310.904 296.64L310.552 297.156L310.193 297.67L309.828 298.181L309.458 298.689L309.081 299.195L308.698 299.697L308.309 300.197L307.914 300.693L307.513 301.186L307.106 301.676L306.694 302.163L306.275 302.647L305.851 303.127L305.421 303.604L304.985 304.078L304.544 304.547L304.096 305.014L303.643 305.476L303.185 305.935L302.721 306.39L302.251 306.842L301.776 307.289L301.295 307.733L300.809 308.172L300.317 308.608L299.82 309.039L299.317 309.466L298.81 309.889L298.297 310.308L297.779 310.722L297.255 311.132L296.727 311.537L296.193 311.938L295.655 312.335L295.111 312.726L294.563 313.113L294.009 313.496L293.451 313.873L292.888 314.246L292.32 314.614L291.747 314.977L291.17 315.335L290.588 315.688L290.001 316.036L289.41 316.378L288.814 316.716L288.215 317.048L287.61 317.375L287.002 317.697L286.389 318.013L285.772 318.324L285.15 318.629L284.525 318.929L283.896 319.223L283.262 319.512L282.625 319.795L281.984 320.072L281.339 320.344L280.69 320.609L280.038 320.869L279.382 321.123L278.723 321.371L278.059 321.614L277.393 321.85L276.723 322.08L276.05 322.304L275.374 322.522L274.694 322.734L274.011 322.939L273.325 323.138L272.637 323.332L271.945 323.518L271.25 323.699L270.553 323.873L269.853 324.04L269.15 324.202L268.445 324.356L267.737 324.505L267.026 324.646L266.314 324.781L265.599 324.91L264.881 325.032L264.162 325.147L263.44 325.255L262.717 325.357L261.991 325.452L261.264 325.541L260.535 325.622L259.804 325.697L259.071 325.765L258.337 325.826L257.601 325.88L256.864 325.927L256.125 325.967L255.385 326L254.644 326.027L253.902 326.046L253.159 326.058L252.414 326.063L251.669 326.061L250.923 326.053L250.176 326.037L249.429 326.014L248.681 325.983L247.932 325.946L247.183 325.902L246.434 325.85L245.684 325.791L244.934 325.725L244.184 325.652L243.434 325.572L242.684 325.484L241.934 325.39L241.184 325.288L240.434 325.178L239.685 325.062L238.936 324.938L238.188 324.807L237.44 324.669L236.693 324.524L235.947 324.371L235.201 324.212L234.457 324.044L233.713 323.87L232.97 323.688L232.229 323.5L231.489 323.304L230.75 323.1L230.013 322.89L229.277 322.672L228.542 322.447L227.809 322.215L227.078 321.975L226.349 321.729L225.621 321.475L224.896 321.214L224.173 320.946L223.451 320.671L222.732 320.389L222.015 320.099L221.301 319.802L220.589 319.499L219.879 319.188L219.172 318.87L218.468 318.545L217.767 318.213L217.068 317.874L216.372 317.528L215.68 317.175L214.99 316.816L214.304 316.449L213.62 316.075L212.941 315.695L212.264 315.307L211.591 314.913L210.922 314.512L210.256 314.104L209.594 313.69L208.936 313.268L208.281 312.84L207.631 312.406L206.984 311.965L206.342 311.517L205.704 311.062L205.07 310.601L204.44 310.134L203.815 309.66L203.195 309.18L202.579 308.693L201.967 308.2L201.36 307.701L200.758 307.195L200.161 306.683L199.569 306.165L198.982 305.641L198.4 305.111L197.823 304.574L197.251 304.032L196.685 303.483L196.124 302.929L195.568 302.369L195.018 301.802L194.473 301.23L193.934 300.653L193.401 300.069L192.874 299.48L192.352 298.886L191.837 298.285L191.327 297.68L190.823 297.069L190.326 296.452L189.834 295.83L189.349 295.203L188.871 294.57L188.398 293.933L187.932 293.29L187.473 292.642L187.02 291.989L186.573 291.331L186.134 290.668L185.701 290.001L185.275 289.328L184.856 288.651L184.444 287.969L184.038 287.283L183.64 286.592L183.249 285.897L182.865 285.197L182.488 284.493L182.119 283.784L181.756 283.072L181.401 282.355L181.054 281.634L180.714 280.909L180.382 280.18L180.057 279.447L179.739 278.711L179.43 277.97L179.128 277.226L178.834 276.479L178.548 275.727L178.269 274.973L177.999 274.215L177.736 273.453L177.482 272.689L177.235 271.921L176.997 271.15L176.767 270.376L176.545 269.599L176.331 268.819L176.125 268.037L175.928 267.252L175.739 266.464L175.558 265.673L175.386 264.88L175.222 264.085L175.066 263.287L174.919 262.487L174.781 261.684L174.651 260.88L174.53 260.074L174.417 259.265L174.313 258.455L174.218 257.643L174.132 256.829L174.054 256.014L173.985 255.197L173.925 254.379L173.873 253.559L173.83 252.738L173.797 251.916L173.772 251.093L173.756 250.268L173.749 249.443L173.751 248.617L173.762 247.79L173.781 246.962L173.81 246.134L173.848 245.305L173.895 244.476L173.951 243.646L174.016 242.816L174.09 241.986L174.173 241.156L174.265 240.325L174.366 239.495L174.476 238.665L174.596 237.835L174.724 237.006L174.862 236.177L175.009 235.348L175.165 234.52L175.33 233.693L175.504 232.866L175.687 232.041L175.879 231.216L176.081 230.392L176.291 229.569L176.511 228.748L176.74 227.928L176.978 227.109L177.225 226.292L177.481 225.476L177.746 224.662L178.02 223.849L178.303 223.039L178.596 222.23L178.897 221.423L179.207 220.619L179.527 219.816L179.855 219.016L180.192 218.218L180.539 217.423L180.894 216.63L181.258 215.84L181.631 215.052L182.013 214.267L182.404 213.485L182.803 212.706L183.212 211.93L183.629 211.157L184.055 210.388L184.489 209.621L184.933 208.858L185.385 208.099L185.845 207.343L186.315 206.591L186.792 205.842L187.279 205.097L187.774 204.356L188.277 203.62L188.789 202.887L189.309 202.158L189.837 201.434L190.374 200.713L190.919 199.998L191.473 199.287L192.034 198.58L192.604 197.878L193.182 197.18L193.768 196.488L194.362 195.8L194.964 195.118L195.573 194.44L196.191 193.768L196.817 193.1L197.45 192.438L198.091 191.782L198.74 191.131L199.396 190.485L200.06 189.845L200.732 189.211L201.411 188.582L202.097 187.959L202.791 187.342L203.492 186.732L204.2 186.127L204.915 185.528L205.638 184.936L206.367 184.349L207.104 183.769L207.847 183.196L208.597 182.629L209.354 182.069L210.118 181.515L210.889 180.968L211.666 180.427L212.449 179.894L213.24 179.367L214.036 178.848L214.839 178.335L215.648 177.83L216.463 177.332L217.284 176.841L218.112 176.357L218.945 175.881L219.784 175.412L220.629 174.95L221.48 174.496L222.336 174.05L223.198 173.612L224.065 173.181L224.938 172.758L225.816 172.342L226.699 171.935L227.588 171.536L228.481 171.145L229.38 170.761L230.284 170.386L231.192 170.019L232.105 169.661L233.023 169.31L233.945 168.968L234.872 168.634L235.803 168.309L236.739 167.992L237.678 167.684L238.622 167.385L239.57 167.094L240.522 166.811L241.478 166.538L242.437 166.273L243.4 166.017L244.367 165.769L245.337 165.531L246.311 165.302L247.288 165.081L248.268 164.87L249.251 164.668L250.238 164.474L251.227 164.29L252.219 164.115L253.214 163.95L254.211 163.793L255.211 163.646L256.213 163.508L257.218 163.379L258.225 163.26L259.234 163.15L260.245 163.049L261.258 162.958L262.272 162.876L263.289 162.804L264.307 162.741L265.327 162.688L266.348 162.645L267.37 162.611L268.394 162.586L269.418 162.572L270.444 162.566L271.471 162.571L272.498 162.585L273.526 162.609L274.555 162.642L275.584 162.686L276.614 162.739L277.644 162.801L278.673 162.874L279.704 162.956L280.734 163.048L281.763 163.15L282.793 163.261L283.822 163.382L284.851 163.514L285.879 163.654L286.907 163.805L287.933 163.966L288.959 164.136L289.984 164.316L291.007 164.506L292.03 164.705L293.051 164.915L294.071 165.134L295.089 165.363L296.105 165.602L297.12 165.85L298.133 166.109L299.144 166.377L300.152 166.654L301.159 166.942L302.163 167.239L303.165 167.546L304.164 167.862L305.161 168.188L306.155 168.524L307.146 168.87L308.135 169.225L309.12 169.59L310.102 169.964L311.08 170.348L312.056 170.741L313.028 171.144L313.996 171.556L314.961 171.978L315.922 172.409L316.879 172.849L317.832 173.299L318.78 173.758L319.725 174.227L320.665 174.705L321.601 175.192L322.533 175.688L323.459 176.193L324.381 176.707L325.299 177.231L326.211 177.764L327.118 178.305L328.02 178.856L328.917 179.415L329.808 179.984L330.694 180.561L331.575 181.147L332.45 181.742L333.319 182.345L334.182 182.957L335.039 183.578L335.891 184.207L336.736 184.845L337.575 185.491L338.407 186.146L339.233 186.809L340.053 187.48L340.866 188.16L341.672 188.847L342.472 189.543L343.264 190.247L344.05 190.959L344.829 191.679L345.6 192.406L346.364 193.142L347.121 193.885L347.87 194.636L348.612 195.395L349.346 196.161L350.072 196.935L350.791 197.716L351.502 198.504L352.204 199.3L352.899 200.103L353.586 200.913L354.264 201.731L354.934 202.555L355.596 203.386L356.249 204.224L356.893 205.069L357.529 205.921L358.156 206.779L358.775 207.644L359.384 208.515L359.985 209.393L360.577 210.277L361.159 211.167L361.733 212.063L362.297 212.966L362.851 213.874L363.397 214.789L363.933 215.709L364.459 216.635L364.976 217.567L365.483 218.504L365.98 219.446L366.468 220.394L366.946 221.348L367.413 222.306L367.871 223.27L368.319 224.239L368.757 225.213L369.184 226.191L369.601 227.174L370.008 228.162L370.404 229.155L370.79 230.152L371.166 231.153L371.531 232.159L371.886 233.169L372.229 234.183L372.563 235.201L372.885 236.223L373.197 237.248L373.497 238.278L373.787 239.311L374.066 240.347L374.334 241.387L374.591 242.43L374.837 243.477L375.072 244.526L375.295 245.579L375.508 246.634L375.709 247.692L375.899 248.753L376.077 249.816L376.245 250.882L376.401 251.95L376.545 253.021L376.678 254.093L376.8 255.168L376.91 256.245L377.008 257.323L377.095 258.403L377.17 259.485L377.234 260.568L377.286 261.653L377.327 262.739L377.355 263.826L377.372 264.914L377.378 266.003L377.371 267.093L377.353 268.184L377.323 269.276L377.281 270.367L377.228 271.46L377.162 272.552L377.085 273.645L376.996 274.738L376.895 275.831L376.782 276.924L376.657 278.016L376.521 279.108L376.372 280.2L376.212 281.291L376.04 282.381L375.856 283.47L375.66 284.559L375.452 285.646L375.232 286.733L375 287.817L374.757 288.901L374.502 289.983L374.234 291.064L373.955 292.142L373.664 293.219L373.362 294.294L373.047 295.367L372.721 296.438L372.383 297.506L372.033 298.572L371.672 299.636L371.298 300.697L370.913 301.755L370.517 302.81L370.108 303.862L369.688 304.911L369.257 305.957L368.813 307L368.359 308.039L367.893 309.075L367.415 310.107L366.926 311.135L366.425 312.16L365.913 313.18L365.39 314.197L364.855 315.209L364.309 316.217L363.752 317.221L363.183 318.22L362.604 319.214L362.013 320.204L361.411 321.188L360.798 322.168L360.174 323.143L359.54 324.112L358.894 325.077L358.237 326.036L357.57 326.989L356.892 327.937L356.203 328.879L355.504 329.815L354.794 330.746L354.074 331.67L353.343 332.588L352.602 333.5L351.85 334.406L351.088 335.305L350.316 336.198L349.534 337.084L348.741 337.964L347.939 338.836L347.127 339.702L346.304 340.56L345.472 341.412L344.631 342.256L343.779 343.093L342.918 343.923L342.048 344.745L341.168 345.559L340.278 346.366L339.38 347.165L338.472 347.956L337.555 348.739L336.629 349.514L335.693 350.281L334.749 351.039L333.797 351.79L332.835 352.531L331.865 353.265L330.886 353.989L329.899 354.705L328.904 355.413L327.9 356.111L326.888 356.8L325.868 357.481L324.84 358.152L323.804 358.814L322.76 359.467L321.708 360.11L320.649 360.744L319.582 361.369L318.508 361.984L317.426 362.589L316.338 363.184L315.242 363.77L314.139 364.346L313.029 364.912L311.912 365.468L310.789 366.013L309.659 366.549L308.522 367.074L307.379 367.589L306.23 368.094L305.074 368.588L303.913 369.071L302.745 369.544L301.572 370.007L300.393 370.458L299.208 370.899L298.018 371.329L296.822 371.749L295.621 372.157L294.415 372.554L293.203 372.94L291.987 373.315L290.766 373.679L289.54 374.032L288.31 374.374L287.075 374.704L285.836 375.022L284.593 375.33L283.345 375.626L282.093 375.91L280.838 376.183L279.579 376.444L278.316 376.694L277.05 376.931L275.78 377.158L274.507 377.372L273.231 377.575L271.952 377.765L270.67 377.944L269.386 378.111L268.098 378.266L266.808 378.409L265.516 378.54L264.222 378.659L262.925 378.766L261.627 378.861L260.327 378.944L259.025 379.014L257.721 379.072L256.416 379.119L255.109 379.153L253.802 379.174L252.493 379.184L251.183 379.181L249.873 379.166L248.562 379.138L247.25 379.099L245.938 379.047L244.626 378.982L243.314 378.906L242.001 378.816L240.689 378.715L239.377 378.601L238.065 378.475L236.754 378.336L235.444 378.185L234.134 378.022L232.825 377.846L231.518 377.658L230.211 377.457L228.906 377.244L227.603 377.019L226.301 376.781L225.001 376.531L223.702 376.268L222.406 375.994L221.112 375.706L219.82 375.407L218.531 375.095L217.244 374.771L215.959 374.435L214.678 374.086L213.4 373.725L212.124 373.352L210.852 372.967L209.584 372.569L208.318 372.16L207.057 371.738L205.799 371.304L204.545 370.858L203.295 370.4L202.049 369.93L200.808 369.448L199.571 368.954L198.338 368.448L197.111 367.93L195.888 367.401L194.67 366.859L193.457 366.306L192.249 365.741L191.047 365.165L189.85 364.577L188.659 363.977L187.473 363.365L186.293 362.743L185.12 362.108L183.952 361.463L182.791 360.805L181.636 360.137L180.487 359.457L179.346 358.767L178.211 358.065L177.082 357.352L175.961 356.627L174.847 355.892L173.74 355.146L172.641 354.39L171.549 353.622L170.464 352.844L169.388 352.055L168.319 351.255L167.258 350.445L166.205 349.625L165.16 348.794L164.124 347.952L163.096 347.101L162.077 346.239L161.067 345.368L160.065 344.486L159.072 343.594L158.088 342.693L157.113 341.781L156.148 340.86L155.191 339.929L154.245 338.989L153.307 338.04L152.38 337.081L151.462 336.112L150.554 335.135L149.656 334.148L148.769 333.153L147.891 332.148L147.024 331.134L146.167 330.112L145.32 329.081L144.484 328.042L143.659 326.994L142.845 325.938L142.042 324.873L141.249 323.801L140.468 322.72L139.698 321.631L138.939 320.534L138.191 319.43L137.455 318.318L136.73 317.198L136.017 316.071L135.316 314.936L134.627 313.794L133.949 312.645L133.284 311.489L132.63 310.326L131.989 309.157L131.36 307.98L130.743 306.797L130.139 305.607L129.547 304.411L128.967 303.209L128.4 302.001L127.846 300.786L127.305 299.566L126.776 298.34L126.26 297.108L125.758 295.87L125.268 294.627L124.791 293.379L124.328 292.126L123.878 290.867L123.441 289.604L123.017 288.335L122.607 287.062L122.21 285.784L121.827 284.502L121.458 283.216L121.102 281.925L120.759 280.63L120.431 279.331L120.116 278.028L119.815 276.722L119.528 275.412L119.255 274.099L118.996 272.782L118.751 271.462L118.52 270.139L118.303 268.812L118.101 267.484L117.912 266.152L117.738 264.818L117.578 263.481L117.432 262.143L117.301 260.802L117.184 259.459L117.081 258.114L116.993 256.767L116.919 255.419L116.86 254.069L116.815 252.718L116.784 251.366L116.769 250.012L116.768 248.658L116.781 247.303L116.809 245.947L116.851 244.591L116.909 243.234L116.981 241.877L117.067 240.52L117.168 239.163L117.284 237.806L117.414 236.45L117.56 235.094L117.719 233.738L117.894 232.383L118.083 231.029L118.287 229.676L118.506 228.324L118.739 226.974L118.987 225.624L119.249 224.277L119.527 222.931L119.818 221.587L120.125 220.244L120.446 218.904L120.782 217.566L121.132 216.231L121.497 214.898L121.876 213.568L122.27 212.24L122.679 210.916L123.102 209.594L123.539 208.276L123.991 206.961L124.457 205.649L124.938 204.341L125.433 203.037L125.942 201.737L126.465 200.441L127.003 199.149L127.555 197.861L128.121 196.578L128.702 195.299L129.296 194.025L129.904 192.756L130.527 191.492L131.163 190.233L131.813 188.979L132.477 187.731L133.155 186.488L133.847 185.25L134.552 184.019L135.271 182.793L136.004 181.574L136.75 180.36L137.509 179.153L138.282 177.953L139.068 176.759L139.868 175.571L140.681 174.391L141.507 173.217L142.346 172.051L143.198 170.892L144.063 169.74L144.94 168.595L145.831 167.458L146.734 166.329L147.65 165.208L148.579 164.094L149.52 162.989L150.473 161.892L151.439 160.803L152.417 159.723L153.407 158.651L154.409 157.588L155.423 156.534L156.449 155.488L157.487 154.452L158.537 153.425L159.598 152.407L160.671 151.398L161.755 150.399L162.85 149.41L163.957 148.43L165.075 147.46L166.204 146.5L167.344 145.55L168.494 144.61L169.656 143.681L170.828 142.762L172.01 141.853L173.203 140.955L174.406 140.068L175.62 139.191L176.843 138.325L178.077 137.47L179.32 136.627L180.573 135.794L181.836 134.973L183.108 134.163L184.389 133.365L185.68 132.578L186.98 131.803L188.289 131.04L189.607 130.288L190.934 129.549L192.269 128.821L193.613 128.106L194.966 127.402L196.326 126.712L197.695 126.033L199.072 125.367L200.456 124.713L201.849 124.072L203.249 123.444L204.656 122.829L206.071 122.226L207.493 121.636L208.922 121.06L210.359 120.496L211.802 119.946L213.251 119.408L214.707 118.884L216.17 118.374L217.639 117.877L219.114 117.393L220.595 116.923L222.082 116.466L223.574 116.024L225.072 115.594L226.575 115.179L228.084 114.778L229.598 114.39L231.117 114.017L232.64 113.657L234.168 113.312L235.701 112.981L237.238 112.664L238.779 112.361L240.325 112.072L241.874 111.798L243.427 111.538L244.983 111.293L246.543 111.062L248.106 110.845L249.673 110.643L251.242 110.456L252.815 110.283L254.389 110.124L255.967 109.981L257.547 109.852L259.129 109.738L260.713 109.639L262.298 109.554L263.886 109.484L265.475 109.429L267.066 109.389L268.658 109.364L270.25 109.354L271.844 109.359L273.439 109.378L275.034 109.413L276.63 109.462L278.226 109.527L279.822 109.606L281.418 109.7L283.013 109.81L284.609 109.934L286.204 110.074L287.798 110.228L289.391 110.398L290.984 110.582L292.575 110.782L294.165 110.996L295.753 111.226L297.34 111.47L298.924 111.73L300.507 112.004L302.088 112.294L303.666 112.598L305.242 112.917L306.815 113.252L308.386 113.601L309.953 113.965L311.518 114.344L313.079 114.738L314.636 115.146L316.19 115.57L317.741 116.008L319.287 116.461L320.829 116.929L322.367 117.411L323.901 117.908L325.43 118.42L326.954 118.946L328.473 119.487L329.987 120.042L331.496 120.612L333 121.196L334.498 121.794L335.99 122.407L337.477 123.035L338.958 123.676L340.432 124.332L341.9 125.001L343.362 125.685L344.817 126.383L346.265 127.095L347.706 127.821L349.14 128.561L350.567 129.314L351.987 130.081L353.399 130.862L354.803 131.657L356.2 132.465L357.588 133.287L358.968 134.122L360.34 134.97L361.704 135.832L363.059 136.707L364.405 137.595L365.742 138.496L367.07 139.41L368.389 140.337L369.699 141.277L371 142.229L372.29 143.194L373.571 144.172L374.842 145.163L376.103 146.165L377.354 147.18L378.595 148.207L379.825 149.247L381.044 150.298L382.253 151.362L383.451 152.437L384.638 153.524L385.814 154.622L386.979 155.733L388.132 156.854L389.274 157.987L390.404 159.132L391.522 160.287L392.629 161.454L393.723 162.631L394.806 163.82L395.876 165.019L396.934 166.228L397.979 167.448L399.012 168.679L400.031 169.92L401.038 171.171L402.033 172.432L403.014 173.703L403.981 174.984L404.936 176.274L405.877 177.575L406.805 178.884L407.718 180.203L408.619 181.531L409.505 182.868L410.377 184.215L411.236 185.57L412.08 186.934L412.91 188.306L413.725 189.687L414.526 191.076L415.313 192.473L416.085 193.878L416.842 195.292L417.584 196.713L418.312 198.141L419.024 199.578L419.721 201.021L420.403 202.472L421.07 203.93L421.721 205.395L422.357 206.867L422.978 208.345L423.583 209.83L424.172 211.322L424.745 212.819L425.303 214.323L425.845 215.833L426.37 217.348L426.88 218.869L427.374 220.396L427.851 221.928L428.312 223.465L428.757 225.008L429.185 226.555L429.597 228.107L429.993 229.664L430.372 231.225L430.734 232.79L431.08 234.36L431.409 235.933L431.721 237.511L432.017 239.092L432.295 240.676L432.557 242.264L432.802 243.856L433.029 245.45L433.24 247.047L433.434 248.647L433.61 250.25L433.769 251.855L433.912 253.462L434.037 255.071L434.144 256.683L434.235 258.296L434.308 259.91L434.364 261.527L434.402 263.144L434.423 264.763L434.427 266.382L434.413 268.003L434.382 269.624L434.333 271.245L434.267 272.867L434.184 274.489L434.083 276.111L433.964 277.733L433.829 279.355L433.675 280.976L433.504 282.596L433.316 284.216L433.11 285.834L432.886 287.452L432.645 289.068L432.387 290.683L432.111 292.296L431.818 293.907L431.507 295.516L431.179 297.123L430.833 298.728L430.47 300.33L430.089 301.93L429.691 303.527L429.276 305.12L428.844 306.711L428.394 308.299L427.927 309.883L427.442 311.463L426.941 313.04L426.422 314.612L425.886 316.181L425.333 317.745L424.763 319.305L424.176 320.86L423.572 322.411L422.951 323.956L422.313 325.497L421.659 327.032L420.987 328.562L420.299 330.086L419.594 331.604L418.872 333.117L418.134 334.624L417.379 336.124L416.608 337.618L415.82 339.105L415.016 340.586L414.196 342.06L413.36 343.527L412.507 344.987L411.638 346.44L410.754 347.885L409.853 349.322L408.936 350.752L408.004 352.174L407.056 353.588L406.093 354.993L405.114 356.391L404.119 357.779L403.109 359.159L402.084 360.531L401.043 361.893L399.988 363.246L398.917 364.59L397.832 365.925L396.731 367.25L395.616 368.565L394.486 369.87L393.342 371.166L392.184 372.451L391.011 373.726L389.823 374.991L388.622 376.245L387.407 377.489L386.177 378.722L384.934 379.944L383.677 381.154L382.407 382.354L381.123 383.542L379.826 384.719L378.516 385.884L377.192 387.037L375.856 388.179L374.507 389.309L373.145 390.426L371.77 391.531L370.383 392.624L368.983 393.704L367.572 394.772L366.148 395.827L364.712 396.87L363.264 397.899L361.805 398.915L360.334 399.918L358.852 400.908L357.358 401.884L355.853 402.847L354.338 403.796L352.811 404.731L351.274 405.653L349.726 406.56L348.167 407.454L346.599 408.333L345.02 409.198L343.431 410.048L341.833 410.884L340.224 411.706L338.606 412.513L336.979 413.305L335.343 414.082L333.697 414.844L332.043 415.591L330.38 416.323L328.708 417.04L327.028 417.742L325.339 418.428L323.643 419.098L321.938 419.753L320.226 420.393L318.506 421.016L316.779 421.624L315.044 422.216L313.302 422.792L311.554 423.352L309.798 423.895L308.036 424.423L306.268 424.934L304.493 425.429L302.712 425.908L300.926 426.37L299.133 426.816L297.335 427.245L295.532 427.657L293.723 428.053L291.909 428.432L290.091 428.794L288.268 429.14L286.44 429.468L284.608 429.78L282.772 430.074L280.932 430.352L279.088 430.612L277.241 430.855L275.39 431.081L273.536 431.29L271.679 431.481L269.819 431.656L267.956 431.812L266.091 431.952L264.223 432.074L262.354 432.179L260.483 432.266L258.609 432.336L256.735 432.388L254.859 432.423L252.981 432.44L251.103 432.44L249.224 432.422L247.344 432.387L245.464 432.333L243.584 432.263L241.704 432.174L239.824 432.068L237.944 431.945L236.065 431.804L234.186 431.645L232.309 431.468L230.432 431.274L228.557 431.062L226.683 430.833L224.811 430.585L222.941 430.321L221.073 430.038L219.207 429.738L217.343 429.421L215.482 429.086L213.624 428.733L211.769 428.363L209.918 427.975L208.069 427.57L206.224 427.147L204.383 426.707L202.546 426.249L200.713 425.774L198.884 425.282L197.06 424.772L195.241 424.245L193.426 423.701L191.617 423.139L189.813 422.561L188.014 421.965L186.221 421.352L184.434 420.722L182.653 420.075L180.878 419.411L179.11 418.731L177.348 418.033L175.592 417.319L173.844 416.588L172.103 415.84L170.369 415.076L168.643 414.295L166.924 413.497L165.214 412.683L163.511 411.853L161.816 411.007L160.13 410.144L158.453 409.265L156.784 408.37L155.124 407.459L153.473 406.532L151.832 405.589L150.2 404.631L148.577 403.657L146.964 402.667L145.362 401.662L143.769 400.641L142.187 399.605L140.615 398.554L139.054 397.487L137.504 396.406L135.965 395.309L134.437 394.198L132.92 393.072L131.415 391.931L129.921 390.775L128.439 389.606L126.969 388.421L125.511 387.223L124.066 386.01L122.633 384.784L121.212 383.543L119.805 382.289L118.41 381.021L117.028 379.739L115.659 378.444L114.304 377.135L112.963 375.813L111.634 374.478L110.32 373.131L109.02 371.77L107.734 370.396L106.462 369.01L105.204 367.612L103.961 366.201L102.733 364.777L101.519 363.342L100.32 361.895L99.1368 360.436L97.9683 358.965L96.8152 357.483L95.6776 355.989L94.5555 354.484L93.4492 352.968L92.3587 351.441L91.2842 349.903L90.2257 348.354L89.1835 346.795L88.1576 345.226L87.1481 343.646L86.1553 342.056L85.1791 340.456L84.2197 338.846L83.2772 337.227L82.3517 335.598L81.4434 333.96L80.5523 332.312L79.6785 330.656L78.8222 328.99L77.9834 327.316L77.1623 325.634L76.3589 323.943L75.5734 322.244L74.8058 320.537L74.0563 318.821L73.3249 317.099L72.6117 315.368L71.9168 313.63L71.2402 311.885L70.5822 310.133L69.9428 308.374L69.3219 306.609L68.7198 304.837L68.1365 303.058L67.572 301.273L67.0266 299.482L66.5001 297.686L65.9927 295.884L65.5046 294.076L65.0355 292.263L64.5859 290.444L64.1555 288.621L63.7446 286.793L63.3531 284.961L62.9812 283.124L62.6289 281.282L62.2962 279.437L61.9833 277.588L61.69 275.735L61.4166 273.879L61.1629 272.019L60.9292 270.156L60.7154 268.291L60.5215 266.422L60.3476 264.551L60.1938 262.677L60.06 260.802L59.9463 258.924L59.8528 257.044L59.7794 255.163L59.7261 253.281L59.6932 251.397L59.6803 249.512L59.6878 247.626L59.7155 245.739L59.7635 243.852L59.8318 241.965L59.9204 240.077L60.0292 238.19L60.1585 236.302L60.308 234.415L60.4779 232.529L60.6681 230.644L60.8786 228.76L61.1094 226.876L61.3606 224.995L61.632 223.115L61.9238 221.236L62.2359 219.36L62.5682 217.485L62.9208 215.614L63.2937 213.744L63.6867 211.878L64.1 210.014L64.5335 208.153L64.9871 206.296L65.4608 204.442L65.9547 202.592L66.4685 200.746L67.0025 198.904L67.5564 197.066L68.1303 195.232L68.7241 193.403L69.3377 191.579L69.9712 189.76L70.6245 187.946L71.2975 186.138L71.9902 184.335L72.7025 182.538L73.4344 180.747L74.1858 178.962L74.9567 177.183L75.747 175.411L76.5566 173.645L77.3855 171.886L78.2336 170.135L79.1009 168.39L79.9872 166.653L80.8925 164.924L81.8168 163.202L82.7598 161.488L83.7217 159.783L84.7022 158.086L85.7014 156.397L86.719 154.717L87.7551 153.046L88.8095 151.383L89.8822 149.73L90.9731 148.087L92.082 146.453L93.2089 144.828L94.3536 143.214L95.5162 141.61L96.6964 140.016L97.8942 138.432L99.1095 136.859L100.342 135.296L101.592 133.745L102.859 132.204L104.143 130.675L105.444 129.157L106.762 127.651L108.096 126.157L109.447 124.674L110.814 123.204L112.198 121.745L113.598 120.299L115.014 118.866L116.446 117.445L117.893 116.037L119.357 114.642L120.836 113.261L122.33 111.892L123.839 110.537L125.364 109.196L126.904 107.868L128.458 106.554L130.027 105.254L131.611 103.969L133.209 102.697L134.821 101.44L136.448 100.198L138.088 98.9704L139.742 97.7577L141.41 96.5599L143.092 95.3773L144.786 94.21L146.494 93.0581L148.215 91.9217L149.949 90.8009L151.695 89.6959L153.454 88.6068L155.225 87.5338L157.008 86.4769L158.804 85.4363L160.611 84.412L162.43 83.4043L164.261 82.4132L166.102 81.4388L167.955 80.4812L169.819 79.5407L171.694 78.6172L173.579 77.7108L175.475 76.8218L177.381 75.9501L179.297 75.0959L181.223 74.2594L183.158 73.4405L185.103 72.6394L187.058 71.8561L189.021 71.0909L190.994 70.3437L192.975 69.6147L194.965 68.9039L196.963 68.2115L198.97 67.5375L200.984 66.882L203.006 66.2451L205.036 65.6268L207.073 65.0273L209.117 64.4467L211.168 63.8849L213.226 63.3421L215.291 62.8183L217.362 62.3136L219.439 61.8281L221.522 61.3619L223.611 60.9149L225.706 60.4873L227.805 60.0792L229.91 59.6905L232.02 59.3214L234.135 58.9718L236.254 58.6419L238.378 58.3317L240.505 58.0413L242.637 57.7706L244.772 57.5198L246.911 57.2888L249.053 57.0777L251.198 56.8866L253.345 56.7155L255.496 56.5644L257.648 56.4334L259.804 56.3224L261.96 56.2316L264.119 56.1609L266.279 56.1103L268.441 56.08L270.604 56.0698L272.767 56.0799L274.932 56.1102L277.096 56.1608L279.261 56.2316L281.426 56.3227L283.591 56.434L285.755 56.5657L287.919 56.7177L290.082 56.8899L292.244 57.0824L294.404 57.2953L296.563 57.5284L298.72 57.7818L300.876 58.0555L303.029 58.3494L305.18 58.6635L307.328 58.998L309.473 59.3526L311.616 59.7274L313.755 60.1224L315.89 60.5375L318.022 60.9728L320.15 61.4282L322.274 61.9036L324.393 62.3991L326.508 62.9146L328.618 63.45L330.724 64.0054L332.823 64.5807L334.918 65.1759L337.007 65.7908L339.09 66.4255L341.167 67.08L343.237 67.7541L345.301 68.4478L347.359 69.1611L349.409 69.8938L351.453 70.6461L353.489 71.4177L355.517 72.2086L357.538 73.0189L359.55 73.8483L361.555 74.6968L363.551 75.5644L365.538 76.451L367.517 77.3565L369.487 78.2808L371.447 79.2239L373.398 80.1857L375.339 81.1661L377.271 82.165L379.192 83.1824L381.103 84.218L383.004 85.272L384.894 86.3441L386.773 87.4342L388.642 88.5424L390.499 89.6684L392.344 90.8122L394.178 91.9737L396 93.1528L397.81 94.3493L399.608 95.5632L401.393 96.7944L403.166 98.0427L404.926 99.308L406.673 100.59L408.407 101.889L410.128 103.205L411.835 104.537L413.528 105.886L415.207 107.251L416.873 108.633L418.524 110.03L420.16 111.444L421.783 112.873L423.39 114.318L424.982 115.778L426.559 117.254L428.121 118.745L429.668 120.251L431.198 121.773L432.713 123.309L434.212 124.86L435.695 126.425L437.162 128.005L438.612 129.599L440.046 131.208L441.462 132.83L442.862 134.466L444.245 136.116L445.61 137.779L446.959 139.456L448.289 141.146L449.602 142.849L450.897 144.565L452.174 146.294L453.433 148.035L454.674 149.789L455.896 151.555L457.1 153.332L458.285 155.122L459.451 156.924L460.598 158.737L461.727 160.562L462.836 162.397L463.925 164.244L464.996 166.102L466.046 167.97L467.077 169.849L468.088 171.738L469.08 173.637L470.051 175.546L471.002 177.465L471.933 179.394L472.843 181.332L473.733 183.279L474.602 185.235L475.45 187.2L476.278 189.174L477.085 191.156L477.871 193.146L478.635 195.144L479.379 197.151L480.101 199.165L480.802 201.186L481.481 203.215L482.139 205.25L482.775 207.293L483.39 209.342L483.983 211.398L484.553 213.46L485.102 215.528L485.629 217.602L486.134 219.682L486.616 221.767L487.077 223.858L487.515 225.953L487.931 228.053L488.324 230.158L488.695 232.268L489.043 234.381L489.369 236.499L489.672 238.62L489.952 240.745L490.21 242.873L490.445 245.005L490.657 247.139L490.846 249.277L491.013 251.416L491.156 253.558L491.277 255.702L491.375 257.848L491.449 259.996L491.501 262.145L491.529 264.296L491.535 266.447L491.517 268.599L491.476 270.752L491.412 272.905L491.325 275.059L491.215 277.212L491.081 279.365L490.925 281.518L490.745 283.669L490.542 285.82L490.316 287.97L490.067 290.118L489.795 292.265L489.499 294.41L489.181 296.553L488.839 298.694L488.474 300.833L488.086 302.968L487.675 305.101L487.241 307.231L486.784 309.357L486.304 311.48L485.801 313.599L485.276 315.714L484.727 317.825L484.155 319.932L483.561 322.034L482.944 324.131L482.304 326.223L481.641 328.31L480.956 330.392L480.248 332.467L479.518 334.537L478.765 336.601L477.99 338.658L477.193 340.709L476.373 342.753L475.531 344.791L474.667 346.821L473.781 348.843L472.873 350.858L471.942 352.866L470.99 354.865L470.017 356.856L469.021 358.839L468.004 360.813L466.965 362.778L465.905 364.734L464.824 366.681L463.721 368.618L462.598 370.546L461.453 372.464L460.287 374.372L459.1 376.27L457.893 378.157L456.664 380.034L455.416 381.9L454.147 383.755L452.857 385.598L451.548 387.43L450.218 389.251L448.868 391.059L447.498 392.856L446.109 394.641L444.7 396.413L443.272 398.173L441.824 399.919L440.357 401.653L438.871 403.374L437.366 405.082L435.842 406.776L434.299 408.456L432.738 410.122L431.159 411.775L429.561 413.413L427.945 415.037L426.311 416.646L424.66 418.241L422.991 419.821L421.304 421.385L419.6 422.935L417.878 424.469L416.14 425.987L414.385 427.49L412.613 428.977L410.825 430.447L409.02 431.902L407.199 433.34L405.362 434.762L403.509 436.166L401.64 437.555L399.756 438.926L397.857 440.28L395.943 441.616L394.013 442.935L392.069 444.237L390.11 445.521L388.137 446.787L386.149 448.035L384.148 449.264L382.132 450.476L380.103 451.669L378.061 452.844L376.005 453.999L373.936 455.136L371.855 456.254L369.76 457.353L367.653 458.433L365.534 459.493L363.403 460.534L361.26 461.556L359.106 462.557L356.94 463.539L354.762 464.501L352.574 465.443L350.375 466.365L348.165 467.266L345.945 468.148L343.715 469.008L341.475 469.849L339.225 470.668L336.965 471.467L334.696 472.245L332.419 473.002L330.132 473.737L327.837 474.452L325.533 475.146L323.221 475.818L320.901 476.469L318.574 477.098L316.239 477.706L313.896 478.292L311.547 478.857L309.191 479.399L306.828 479.92L304.459 480.419L302.084 480.896L299.703 481.351L297.316 481.784L294.924 482.195L292.527 482.583L290.125 482.949L287.718 483.293L285.307 483.615L282.891 483.914L280.472 484.19L278.049 484.444L275.622 484.676L273.192 484.884L270.759 485.071L268.324 485.234L265.885 485.375L263.445 485.493L261.003 485.588L258.558 485.661L256.112 485.71L253.665 485.737L251.217 485.741L248.768 485.722L246.319 485.68L243.869 485.615L241.419 485.528L238.969 485.417L236.52 485.283L234.071 485.127L231.623 484.948L229.177 484.745L226.732 484.52L224.288 484.272L221.847 484L219.407 483.706L216.97 483.389L214.536 483.049L212.104 482.687L209.676 482.301L207.251 481.893L204.829 481.461L202.412 481.007L199.999 480.531L197.59 480.031L195.185 479.509L192.786 478.964L190.391 478.397L188.002 477.807L185.619 477.194L183.241 476.559L180.87 475.902L178.505 475.222L176.146 474.52L173.794 473.796L171.449 473.049L169.112 472.28L166.782 471.489L164.46 470.676L162.146 469.841L159.84 468.985L157.542 468.106L155.254 467.206L152.974 466.284L150.703 465.34L148.442 464.375L146.191 463.388L143.949 462.38L141.718 461.351L139.497 460.3L137.286 459.229L135.087 458.136L132.898 457.022L130.721 455.888L128.555 454.733L126.401 453.557L124.259 452.361L122.129 451.145L120.012 449.908L117.907 448.651L115.815 447.373L113.736 446.076L111.67 444.759L109.618 443.422L107.58 442.066L105.555 440.69L103.545 439.295L101.549 437.881L99.5677 436.447L97.6011 434.995L95.6495 433.523L93.7132 432.033L91.7922 430.524L89.8868 428.997L87.9973 427.452L86.1237 425.888L84.2664 424.307L82.4255 422.707L80.6012 421.09L78.7938 419.455L77.0032 417.803L75.23 416.134L73.474 414.447L71.7357 412.744L70.0152 411.024L68.3125 409.287L66.628 407.533L64.9618 405.764L63.3141 403.978L61.6851 402.176L60.0749 400.358L58.4838 398.525L56.9118 396.676L55.3592 394.812L53.8262 392.933L52.3129 391.039L50.8194 389.131L49.346 387.207L47.8928 385.27L46.46 383.318L45.0476 381.352L43.6559 379.372L42.2851 377.379L40.9353 375.372L39.6066 373.352L38.2992 371.319L37.0132 369.273L35.7488 367.214L34.5061 365.143L33.2852 363.06L32.0864 360.964L30.9097 358.857L29.7553 356.738L28.6232 354.608L27.5137 352.466L26.4269 350.313L25.3629 348.15L24.3217 345.975L23.3035 343.791L22.3086 341.596L21.3368 339.391L20.3885 337.177L19.4636 334.952L18.5623 332.719L17.6848 330.476L16.8311 328.225L16.0011 325.965L15.1954 323.696L14.4137 321.419L13.6562 319.134L12.9229 316.841L12.2141 314.541L11.5297 312.233L10.87 309.918L10.2349 307.597L9.62452 305.269L9.03889 302.934L8.47818 300.593L7.94246 298.246L7.43179 295.893L6.94617 293.535L6.48578 291.172L6.05051 288.803L5.6406 286.43L5.25606 284.052L4.89693 281.67L4.56324 279.283L4.25509 276.893L3.97244 274.499L3.71545 272.102L3.48409 269.702L3.27846 267.299L3.09851 264.893L2.94437 262.484L2.81603 260.074L2.71349 257.661L2.63689 255.247L2.58609 252.832L2.56123 250.415L2.5623 247.997L2.5893 245.578L2.64231 243.159L2.72131 240.74L2.82626 238.321L2.95721 235.901L3.11416 233.483L3.29712 231.065L3.50609 228.648L3.74106 226.232L4.00199 223.818L4.28899 221.405L4.60188 218.995L4.94078 216.586L5.30558 214.18L5.6964 211.777L6.11306 209.376L6.55561 206.979L7.02401 204.585L7.51825 202.195L8.03833 199.808L8.58413 197.426L9.15566 195.048L9.75285 192.675L10.3757 190.307L11.0242 187.943L11.6982 185.585L12.3977 183.233L13.1227 180.886L13.873 178.546L14.6487 176.212L15.4497 173.884L16.2758 171.563L17.1271 169.249L18.0036 166.942L18.9049 164.643L19.8313 162.352L20.7825 160.068L21.7585 157.793L22.7592 155.526L23.7845 153.268L24.8343 151.018L25.9086 148.778L27.0072 146.547L28.1301 144.326L29.2771 142.115L30.4482 139.913L31.6433 137.722L32.8622 135.542L34.1049 133.372L35.3712 131.213L36.661 129.065L37.9743 126.929L39.3108 124.804L40.6706 122.691L42.0534 120.59L43.4592 118.502L44.8878 116.426L46.339 114.363L47.8128 112.312L49.3091 110.275L50.8276 108.251L52.3683 106.241L53.931 104.245L55.5155 102.262L57.1218 100.294L58.7497 98.34L60.399 96.4008L62.0696 94.4765L63.7613 92.5671L65.474 90.673L67.2075 88.7944L68.9616 86.9314L70.7362 85.0842L72.5312 83.253L74.3463 81.4381L76.1814 79.6396L78.0364 77.8577L79.9109 76.0926L81.805 74.3445L83.7183 72.6135L85.6508 70.8999L87.6022 69.2039L89.5723 67.5256L91.5611 65.8652L93.5682 64.2229L95.5935 62.5989L97.6367 60.9933L99.6978 59.4063L101.777 57.8381L103.873 56.2889L105.986 54.7588L108.116 53.248L110.264 51.7567L112.427 50.2849L114.607 48.833L116.804 47.401L119.016 45.9891L121.244 44.5974L123.488 43.2262L125.747 41.8755L128.021 40.5455L130.31 39.2364L132.614 37.9483L134.932 36.6814L137.265 35.4357L139.611 34.2115L141.971 33.0088L144.345 31.8278L146.733 30.6687L149.133 29.5315L151.546 28.4164L153.972 27.3235L156.41 26.253L158.86 25.205L161.323 24.1795L163.797 23.1768L166.282 22.1969L168.779 21.2399L171.286 20.306L173.805 19.3952L176.333 18.5077L178.873 17.6435L181.422 16.8029L183.98 15.9858L186.548 15.1924L189.126 14.4227L191.712 13.6769L194.308 12.9551L196.911 12.2573L199.523 11.5836L202.143 10.9342L204.77 10.309L207.405 9.7082L210.047 9.13185L212.696 8.58002L215.352 8.05279L218.014 7.55022L220.682 7.07238L223.356 6.61933L226.036 6.19114L228.721 5.78787L231.411 5.40957L234.105 5.0563L236.805 4.72811L239.508 4.42506L242.216 4.14717L244.927 3.89452L247.642 3.66712L250.36 3.46503L253.081 3.28828L255.805 3.13691L258.53 3.01095L261.258 2.91042L263.988 2.83536L266.72 2.78578L269.452 2.76172L272.186 2.76319L274.92 2.79021L277.655 2.84279L280.39 2.92094L283.125 3.02467L285.86 3.15399L288.594 3.30891L291.327 3.48942L294.059 3.69552L296.789 3.92722L299.518 4.18449L302.245 4.46734L304.969 4.77576L307.691 5.10972L310.41 5.46922L313.125 5.85422L315.838 6.26472L318.547 6.70069L321.251 7.16209L323.952 7.64891L326.648 8.1611L329.339 8.69864L332.026 9.26148L334.707 9.84959L337.382 10.4629L340.052 11.1014L342.715 11.7651L345.372 12.4538L348.022 13.1676L350.666 13.9063L353.302 14.6699L355.931 15.4584L358.552 16.2717L361.165 17.1097L363.769 17.9724L366.365 18.8597L368.953 19.7714L371.531 20.7077L374.1 21.6682L376.659 22.6531L379.208 23.6622L381.747 24.6953L384.276 25.7525L386.794 26.8337L389.302 27.9387L391.798 29.0674L394.282 30.2198L396.755 31.3957L399.216 32.595L401.665 33.8177L404.101 35.0637L406.525 36.3327L408.935 37.6248L411.332 38.9398L413.716 40.2775L416.087 41.6379L418.443 43.0209L420.785 44.4262L423.112 45.8539L425.425 47.3037L427.723 48.7755L430.006 50.2692L432.273 51.7847L434.525 53.3218L436.761 54.8803L438.98 56.4603L441.184 58.0614L443.37 59.6835L445.54 61.3265L447.693 62.9903L449.828 64.6747L451.946 66.3795L454.047 68.1046L456.129 69.8498L458.193 71.6149L460.239 73.3999L462.266 75.2044L464.275 77.0284L466.264 78.8717L468.234 80.7341L470.184 82.6155L472.115 84.5156L474.026 86.4343L475.917 88.3714L477.788 90.3267L479.638 92.3L481.468 94.2912L483.276 96.3L485.064 98.3263L486.83 100.37L488.575 102.431L490.298 104.508L492 106.602L493.679 108.713L495.336 110.84L496.971 112.983L498.583 115.142L500.172 117.317L501.739 119.507L503.282 121.712L504.802 123.933L506.299 126.168L507.772 128.418L509.221 130.682L510.647 132.96L512.048 135.253L513.425 137.559L514.778 139.879L516.106 142.211L517.41 144.557L518.689 146.916L519.942 149.288L521.171 151.671L522.374 154.067L523.552 156.475L524.705 158.895L525.832 161.326L526.933 163.768L528.008 166.221L529.057 168.685L530.08 171.159L531.076 173.644L532.046 176.139L532.99 178.643L533.907 181.157L534.797 183.68L535.661 186.212L536.497 188.753L537.307 191.303L538.089 193.861L538.844 196.426L539.572 199L540.272 201.581L540.945 204.169L541.59 206.765L542.208 209.367L542.798 211.975L543.36 214.59L543.894 217.211L544.4 219.837L544.878 222.469L545.328 225.107L545.749 227.749L546.143 230.395L546.508 233.047L546.845 235.702L547.153 238.361L547.433 241.024L547.684 243.69L547.907 246.359L548.102 249.031L548.267 251.706L548.404 254.383L548.513 257.062L548.592 259.742L548.643 262.424L548.665 265.108L548.659 267.792L548.623 270.477L548.559 273.162L548.466 275.848L548.344 278.533L548.193 281.218L548.014 283.903L547.805 286.586L547.568 289.268L547.302 291.949L547.007 294.628L546.683 297.305L546.33 299.979L545.949 302.651L545.539 305.32L545.1 307.987L544.632 310.649L544.136 313.308L543.611 315.964L543.057 318.615L542.475 321.261L541.864 323.903L541.225 326.54L540.557 329.171L539.861 331.797L539.137 334.418L538.384 337.032L537.603 339.64L536.794 342.241L535.957 344.836L535.091 347.423L534.198 350.003L533.277 352.575L532.328 355.14L531.351 357.696L530.346 360.244L529.314 362.783L528.255 365.313L527.168 367.834L526.053 370.345L524.912 372.847L523.743 375.339L522.547 377.82L521.325 380.291L520.075 382.751L518.799 385.201L517.496 387.639L516.167 390.065L514.811 392.48L513.429 394.882L512.021 397.273L510.587 399.651L509.127 402.016L507.642 404.368L506.13 406.707L504.594 409.032L503.032 411.344L501.444 413.642L499.832 415.925L498.195 418.194L496.533 420.449L494.846 422.688L493.135 424.912L491.4 427.121L489.64 429.314L487.857 431.492L486.05 433.653L484.219 435.798L482.364 437.927L480.487 440.038L478.586 442.133L476.662 444.211L474.716 446.271L472.747 448.313L470.755 450.338L468.741 452.345L466.706 454.333L464.648 456.303L462.569 458.254L460.468 460.186L458.346 462.099L456.203 463.993L454.039 465.867L451.855 467.722L449.65 469.556L447.424 471.371L445.179 473.165L442.914 474.939L440.629 476.692L438.325 478.424L436.002 480.135L433.66 481.825L431.299 483.493L428.92 485.14L426.523 486.765L424.107 488.368L421.674 489.949L419.223 491.507L416.754 493.043L414.269 494.557L411.767 496.047L409.248 497.515L406.713 498.959L404.161 500.381L401.594 501.778L399.011 503.152L396.413 504.503L393.8 505.829L391.172 507.131L388.529 508.409L385.871 509.663L383.2 510.892L380.515 512.097L377.816 513.277L375.104 514.432L372.379 515.562L369.641 516.666L366.891 517.746L364.128 518.8L361.353 519.828L358.567 520.831L355.769 521.808L352.96 522.76L350.14 523.685L347.31 524.584L344.469 525.457L341.618 526.303L338.757 527.124L335.887 527.917L333.007 528.684L330.119 529.425L327.222 530.138L324.317 530.825L321.403 531.484L318.482 532.117L315.553 532.723L312.617 533.301L309.674 533.852L306.725 534.376L303.769 534.872L300.807 535.341L297.839 535.782L294.866 536.195L291.888 536.581L288.905 536.94L285.917 537.27L282.925 537.573L279.929 537.847L276.929 538.094L273.926 538.313L270.92 538.504L267.911 538.667L264.9 538.801L261.421 272.134Z" stroke="#00715D" stroke-width="4"/>
</svg>
