<svg width="1280" height="322" viewBox="0 0 1280 322" fill="none" xmlns="http://www.w3.org/2000/svg">
<g clip-path="url(#clip0_96_68)">
<rect width="1280" height="322" fill="#00715D"/>
<path d="M83 274C83 249.699 102.699 230 127 230C151.301 230 171 249.699 171 274V381H83V274Z" fill="#006150"/>
<path d="M896 274C896 249.699 915.699 230 940 230C964.301 230 984 249.699 984 274V381H896V274Z" fill="#006150"/>
<path d="M1201 65C1201 89.3005 1181.3 109 1157 109C1132.7 109 1113 89.3005 1113 65V-42H1201V65Z" fill="#006150"/>
<path d="M421 57C421 81.3005 401.301 101 377 101C352.699 101 333 81.3005 333 57V-50H421V57Z" fill="#006150"/>
</g>
<defs>
<clipPath id="clip0_96_68">
<rect width="1280" height="322" fill="white"/>
</clipPath>
</defs>
</svg>
