<svg width="74" height="49" viewBox="0 0 74 49" fill="none" xmlns="http://www.w3.org/2000/svg">
<path d="M53.075 8.64376C52.1173 7.68564 50.9803 6.92559 49.7288 6.40704C48.4773 5.88848 47.1359 5.62158 45.7812 5.62158C44.4266 5.62158 43.0852 5.88848 41.8337 6.40704C40.5822 6.92559 39.4451 7.68564 38.4875 8.64376L36.5 10.6313L34.5125 8.64376C32.5781 6.70933 29.9544 5.62258 27.2187 5.62258C24.483 5.62258 21.8594 6.70933 19.925 8.64376C17.9906 10.5782 16.9038 13.2018 16.9038 15.9375C16.9038 18.6732 17.9906 21.2968 19.925 23.2313L21.9125 25.2188L36.5 39.8063L51.0875 25.2188L53.075 23.2313C54.0331 22.2736 54.7931 21.1365 55.3117 19.885C55.8302 18.6336 56.0972 17.2922 56.0972 15.9375C56.0972 14.5828 55.8302 13.2414 55.3117 11.99C54.7931 10.7385 54.0331 9.60142 53.075 8.64376V8.64376Z" stroke="white" stroke-width="2" stroke-linecap="round" stroke-linejoin="round"/>
<path d="M69.3917 19.7231C68.6468 18.9779 67.7624 18.3868 66.7891 17.9835C65.8157 17.5801 64.7724 17.3726 63.7188 17.3726C62.6651 17.3726 61.6218 17.5801 60.6485 17.9835C59.6751 18.3868 58.7907 18.9779 58.0458 19.7231L56.5 21.269L54.9542 19.7231C53.4496 18.2186 51.409 17.3733 49.2813 17.3733C47.1535 17.3733 45.1129 18.2186 43.6083 19.7231C42.1038 21.2277 41.2585 23.2683 41.2585 25.3961C41.2585 27.5238 42.1038 29.5644 43.6083 31.069L45.1542 32.6148L56.5 43.9606L67.8458 32.6148L69.3917 31.069C70.1369 30.3241 70.728 29.4397 71.1313 28.4664C71.5347 27.493 71.7423 26.4497 71.7423 25.3961C71.7423 24.3424 71.5347 23.2991 71.1313 22.3257C70.728 21.3524 70.1369 20.468 69.3917 19.7231V19.7231Z" stroke="white" stroke-width="2" stroke-linecap="round" stroke-linejoin="round"/>
<path d="M30.3917 20.7231C29.6468 19.9779 28.7624 19.3868 27.7891 18.9835C26.8157 18.5801 25.7724 18.3726 24.7188 18.3726C23.6651 18.3726 22.6218 18.5801 21.6485 18.9835C20.6751 19.3868 19.7907 19.9779 19.0458 20.7231L17.5 22.269L15.9542 20.7231C14.4496 19.2186 12.409 18.3733 10.2813 18.3733C8.1535 18.3733 6.1129 19.2186 4.60834 20.7231C3.10379 22.2277 2.25854 24.2683 2.25854 26.3961C2.25854 28.5238 3.10379 30.5644 4.60834 32.069L6.15418 33.6148L17.5 44.9606L28.8458 33.6148L30.3917 32.069C31.1369 31.3241 31.728 30.4397 32.1313 29.4664C32.5347 28.493 32.7423 27.4497 32.7423 26.3961C32.7423 25.3424 32.5347 24.2991 32.1313 23.3257C31.728 22.3524 31.1369 21.468 30.3917 20.7231V20.7231Z" stroke="white" stroke-width="2" stroke-linecap="round" stroke-linejoin="round"/>
</svg>
