<svg width="20" height="20" viewBox="0 0 20 20" fill="none" xmlns="http://www.w3.org/2000/svg">
<g clip-path="url(#clip0_98_261)">
<path fill-rule="evenodd" clip-rule="evenodd" d="M18.7861 1.70561C18.9997 1.92186 19.0721 2.24288 18.9723 2.53153L13.4673 18.4537C13.3608 18.7618 13.0793 18.9728 12.7571 18.9861C12.4349 18.9994 12.1373 18.8123 12.0064 18.514L8.98351 11.6288L2.18206 8.56878C1.8874 8.4362 1.70254 8.13498 1.71568 7.80883C1.72883 7.48269 1.93731 7.19771 2.24166 7.08987L17.9702 1.51713C18.2554 1.4161 18.5725 1.48936 18.7861 1.70561ZM10.5173 11.202L12.638 16.0324L16.3493 5.29827L10.5173 11.202ZM15.2371 4.17241L4.63353 7.92934L9.40515 10.0762L15.2371 4.17241Z" fill="#210F2A"/>
</g>
<defs>
<clipPath id="clip0_98_261">
<rect width="18.8743" height="19.1066" fill="white" transform="translate(0.928589 0.67627)"/>
</clipPath>
</defs>
</svg>
